<svg fill="#000000" xmlns="http://www.w3.org/2000/svg"  viewBox="0 0 50 50" width="50px" height="50px"><path fill="none" stroke="#000000" stroke-linecap="round" stroke-linejoin="round" stroke-miterlimit="10" stroke-width="2" d="M25,3	C12.85,3,3,12.85,3,25s9.85,22,22,22s22-9.85,22-22S37.15,3,25,3z"/><path d="M37,17.277V12c0-0.043-0.019-0.08-0.025-0.122L38,11H21l-10,9h6.782c0.02,2.847,2.186,5.73,5.988,5.73	c0.36,0,0.76-0.04,1.16-0.08c-0.18,0.45-0.37,0.82-0.37,1.43c0,1.15,0.58,1.84,1.09,2.5c-1.63,0.11-4.66,0.3-6.89,1.69	c-2.13,1.29-2.78,3.16-2.78,4.48c0,2.72,2.52,5.25,7.75,5.25c6.2,0,9.49-3.49,9.49-6.94c0-2.53-1.44-3.78-3.03-5.14l-1.29-1.03	c-0.4-0.32-0.95-0.77-0.95-1.57c0-0.81,0.55-1.33,1.02-1.81c1.51-1.2,3.03-2.55,3.03-5.27c0-1.043-0.243-1.892-0.591-2.59L35,13.571	v3.706c-0.595,0.346-1,0.984-1,1.723v6c0,1.104,0.896,2,2,2s2-0.896,2-2v-6C38,18.262,37.595,17.624,37,17.277z M30.8,35.49	c0,2.27-1.83,3.97-5.3,3.97c-3.86,0-6.34-1.87-6.34-4.48s2.3-3.48,3.1-3.78c1.51-0.52,3.46-0.59,3.78-0.59c0.37,0,0.55,0,0.84,0.04	C29.62,32.63,30.8,33.62,30.8,35.49z M27.92,23.67c-0.58,0.59-1.55,1.03-2.46,1.03c-3.09,0-4.51-4.08-4.51-6.54	c0-0.95,0.19-1.94,0.8-2.7c0.58-0.75,1.59-1.22,2.52-1.22c3,0,4.55,4.11,4.55,6.76C28.82,21.65,28.74,22.82,27.92,23.67z"/></svg>