<?xml version="1.0" encoding="UTF-8" standalone="no"?>
<svg
   xmlns:dc="http://purl.org/dc/elements/1.1/"
   xmlns:cc="http://creativecommons.org/ns#"
   xmlns:rdf="http://www.w3.org/1999/02/22-rdf-syntax-ns#"
   xmlns:svg="http://www.w3.org/2000/svg"
   xmlns="http://www.w3.org/2000/svg"
   id="svg14"
   version="1.1"
   height="44"
   width="44"
   viewBox="0 0 22 22"
   fill="#000000">
  <metadata
     id="metadata20">
    <rdf:RDF>
      <cc:Work
         rdf:about="">
        <dc:format>image/svg+xml</dc:format>
        <dc:type
           rdf:resource="http://purl.org/dc/dcmitype/StillImage" />
        <dc:title></dc:title>
      </cc:Work>
    </rdf:RDF>
  </metadata>
  <defs
     id="defs18" />
  <path
     id="path10"
     d="m 15.787,7.276 h -1.534 v 0.541 h 0.905 c 0,0.805 -0.377,1.345 -1.094,1.345 -0.566,0 -0.893,-0.49 -0.893,-1.169 V 6.635 c 0,-0.629 0.591,-0.993 0.993,-0.993 0.717,0 0.993,0.629 0.993,0.629 l 0.541,-0.365 c 0,0 -0.264,-0.905 -1.534,-0.905 -1.283,0 -1.723,0.918 -1.723,1.534 V 8.17 c 0,0.83 0.453,1.622 1.622,1.622 1.962,-0.002 1.724,-1.485 1.724,-2.516 z m -4.236,8.497 C 10.935,15.107 10.105,14.025 9.426,12.806 10.558,12.529 11.4,11.461 11.4,10.404 11.4,8.82 10.18,8.091 8.584,8.091 7.679,8.091 6.296,8.179 5.001,8.129 v 0.402 c 0.78,0.151 1.106,0.075 1.106,1.207 v 5.532 c 0,1.144 -0.327,1.056 -1.106,1.207 v 0.415 c 0.377,-0.013 1.031,-0.05 1.697,-0.05 0.629,0 1.446,0.025 1.798,0.05 V 16.477 C 7.49,16.339 7.188,16.452 7.188,15.27 v -2.339 c 0.34,0.025 0.629,0.025 1.081,0.025 0.855,1.534 1.672,2.678 2.137,3.219 0.842,1.018 2.188,0.868 2.515,0.717 v -0.377 c -0.503,-0.001 -1.006,-0.34 -1.37,-0.742 z M 8.194,12.327 c -0.465,0 -0.679,-0.013 -1.006,-0.038 V 8.768 C 7.515,8.73 7.942,8.73 8.32,8.73 c 1.182,0 1.886,0.616 1.886,1.748 -10e-4,1.108 -0.755,1.849 -2.012,1.849 z" />
  <path
     id="path12"
     d="M 0,0 V 22 H 22 V 0 Z M 2,2 H 20 V 20 H 2 Z" />
</svg>
