<?xml version="1.0" encoding="UTF-8" standalone="no"?>
<svg
   xmlns:dc="http://purl.org/dc/elements/1.1/"
   xmlns:cc="http://creativecommons.org/ns#"
   xmlns:rdf="http://www.w3.org/1999/02/22-rdf-syntax-ns#"
   xmlns:svg="http://www.w3.org/2000/svg"
   xmlns="http://www.w3.org/2000/svg"
   xmlns:sodipodi="http://sodipodi.sourceforge.net/DTD/sodipodi-0.dtd"
   xmlns:inkscape="http://www.inkscape.org/namespaces/inkscape"
   inkscape:version="1.0 (4035a4f, 2020-05-01)"
   height="41.83923"
   width="43.099998"
   sodipodi:docname="minima-social-icons.svg"
   xml:space="preserve"
   viewBox="0 0 43.099998 41.83923"
   y="0px"
   x="0px"
   id="Layer_1"
   version="1.1"><metadata
   id="metadata846"><rdf:RDF><cc:Work
       rdf:about=""><dc:format>image/svg+xml</dc:format><dc:type
         rdf:resource="http://purl.org/dc/dcmitype/StillImage" /><dc:title></dc:title></cc:Work></rdf:RDF></metadata><defs
   id="defs844">
	
	
</defs><sodipodi:namedview
   inkscape:current-layer="Layer_1"
   inkscape:window-maximized="1"
   inkscape:window-y="23"
   inkscape:window-x="0"
   inkscape:cy="22.2"
   inkscape:cx="21.9"
   inkscape:zoom="11.444444"
   fit-margin-bottom="0"
   fit-margin-right="0"
   fit-margin-left="0"
   fit-margin-top="0"
   showgrid="false"
   id="namedview842"
   inkscape:window-height="855"
   inkscape:window-width="1440"
   inkscape:pageshadow="2"
   inkscape:pageopacity="0"
   guidetolerance="10"
   gridtolerance="10"
   objecttolerance="10"
   borderopacity="1"
   bordercolor="#666666"
   pagecolor="#ffffff" />
<style
   id="style833"
   type="text/css">
	.st0{fill:none;}
</style>
<rect
   x="-5.3000002"
   y="-4.6999998"
   class="st0"
   width="53.799999"
   height="53.400002"
   id="rect835" /><path
   d="M 10.8,2.9 C 14.1,1 17.7,0 21.6,0 c 3.9,0 7.5,1 10.8,2.9 3.3,1.9 5.9,4.5 7.8,7.8 1.9,3.3 2.9,6.9 2.9,10.8 0,4.7 -1.4,8.9 -4.1,12.6 -2.7,3.7 -6.2,6.3 -10.6,7.7 -0.5,0.1 -0.9,0 -1.1,-0.2 -0.2,-0.2 -0.4,-0.5 -0.4,-0.8 0,-0.1 0,-0.8 0,-2.1 0,-1.3 0,-2.6 0,-3.8 0,-1.8 -0.5,-3.1 -1.5,-4 1.1,-0.1 2,-0.3 2.9,-0.5 0.8,-0.2 1.7,-0.6 2.6,-1.1 0.9,-0.5 1.7,-1.1 2.3,-1.9 0.6,-0.7 1.1,-1.7 1.5,-2.9 0.4,-1.2 0.6,-2.6 0.6,-4.2 0,-2.2 -0.7,-4.1 -2.2,-5.7 C 33.8,12.9 33.7,11 32.9,8.9 32.4,8.7 31.6,8.8 30.6,9.2 29.6,9.6 28.8,10 28,10.4 l -1.1,0.7 c -1.7,-0.5 -3.5,-0.7 -5.4,-0.7 -1.8,0 -3.6,0.2 -5.4,0.7 C 15.8,10.9 15.4,10.6 14.9,10.3 14.4,10 13.6,9.6 12.6,9.2 11.5,8.8 10.7,8.7 10.2,8.8 c -0.8,2.1 -0.9,4 -0.2,5.7 -1.4,1.7 -2.1,3.6 -2.1,5.8 0,1.6 0.2,3 0.6,4.2 0.4,1.2 0.9,2.2 1.5,2.9 0.6,0.7 1.3,1.4 2.2,1.9 0.9,0.5 1.8,0.9 2.6,1.1 0.8,0.2 1.8,0.4 2.9,0.5 -0.7,0.7 -1.2,1.6 -1.4,2.9 -0.4,0.2 -0.8,0.3 -1.3,0.4 -0.4,0.1 -1,0.1 -1.6,0.1 -0.6,0 -1.2,-0.2 -1.8,-0.6 C 11,33.3 10.5,32.7 10.1,32 9.7,31.4 9.3,30.9 8.7,30.5 8.2,30.1 7.7,29.9 7.3,29.8 L 6.7,29.7 c -0.4,0 -0.7,0 -0.8,0.1 -0.1,0.1 -0.2,0.2 -0.1,0.3 0.1,0.1 0.1,0.3 0.3,0.4 0.1,0.1 0.2,0.2 0.4,0.3 l 0.2,0.1 c 0.4,0.2 0.8,0.5 1.2,1.1 0.4,0.5 0.7,1 0.9,1.4 L 9.1,34 c 0.2,0.7 0.7,1.3 1.2,1.7 0.6,0.4 1.2,0.7 1.9,0.8 0.7,0.1 1.3,0.2 1.9,0.2 0.6,0 1.1,0 1.5,-0.1 l 0.6,-0.1 c 0,0.7 0,1.5 0,2.5 0,0.9 0,1.4 0,1.5 0,0.3 -0.1,0.6 -0.4,0.8 -0.2,0.2 -0.6,0.3 -1.1,0.2 C 10.4,40.1 6.9,37.5 4.1,33.8 1.3,30.1 0,25.9 0,21.2 0,17.3 1,13.7 2.9,10.4 4.9,7.4 7.5,4.8 10.8,2.9 Z M 8.2,30.8 c 0.1,-0.1 0,-0.2 -0.2,-0.3 -0.2,-0.1 -0.3,0 -0.4,0.1 -0.1,0.1 0,0.2 0.2,0.3 C 8,31 8.2,31 8.2,30.8 Z m 0.9,1 C 9.2,31.7 9.2,31.6 9,31.4 8.8,31.2 8.7,31.2 8.6,31.3 8.5,31.4 8.5,31.5 8.7,31.7 8.8,31.9 9,31.9 9.1,31.8 Z M 9.9,33 c 0.2,-0.1 0.2,-0.3 0,-0.5 -0.1,-0.2 -0.3,-0.3 -0.5,-0.2 -0.2,0.1 -0.2,0.3 0,0.5 0.2,0.2 0.4,0.3 0.5,0.2 z m 1.2,1.2 c 0.1,-0.1 0.1,-0.3 -0.1,-0.5 -0.2,-0.2 -0.4,-0.3 -0.6,-0.1 -0.2,0.1 -0.1,0.3 0.1,0.5 0.3,0.2 0.5,0.2 0.6,0.1 z m 1.6,0.7 c 0.1,-0.2 -0.1,-0.4 -0.4,-0.4 -0.3,-0.1 -0.5,0 -0.5,0.2 -0.1,0.2 0,0.3 0.4,0.4 0.2,0.1 0.4,0 0.5,-0.2 z m 1.8,0.1 c 0,-0.2 -0.2,-0.3 -0.5,-0.3 -0.3,0 -0.4,0.1 -0.4,0.3 0,0.2 0.2,0.3 0.5,0.3 0.2,0 0.4,-0.1 0.4,-0.3 z m 1.6,-0.3 c 0,-0.2 -0.2,-0.3 -0.5,-0.3 -0.3,0.1 -0.4,0.2 -0.4,0.4 0,0.2 0.2,0.3 0.5,0.2 0.3,0.1 0.4,-0.1 0.4,-0.3 z"
   id="path837" />
</svg>
