<?xml version="1.0" encoding="UTF-8" standalone="no"?>
<svg
   xmlns:dc="http://purl.org/dc/elements/1.1/"
   xmlns:cc="http://creativecommons.org/ns#"
   xmlns:rdf="http://www.w3.org/1999/02/22-rdf-syntax-ns#"
   xmlns:svg="http://www.w3.org/2000/svg"
   xmlns="http://www.w3.org/2000/svg"
   xmlns:sodipodi="http://sodipodi.sourceforge.net/DTD/sodipodi-0.dtd"
   xmlns:inkscape="http://www.inkscape.org/namespaces/inkscape"
   inkscape:version="1.0 (4035a4f, 2020-05-01)"
   sodipodi:docname="reentry.svg"
   version="1.1"
   id="svg10"
   xml:space="preserve"
   width="680.31494"
   height="389.29135"
   viewBox="0 0 680.31494 389.29135"><sodipodi:namedview
     inkscape:current-layer="g20"
     inkscape:window-maximized="0"
     inkscape:window-y="743"
     inkscape:window-x="-1"
     inkscape:cy="194.64568"
     inkscape:cx="340.15747"
     inkscape:zoom="1.6110186"
     showgrid="false"
     id="namedview14355"
     inkscape:window-height="1005"
     inkscape:window-width="1680"
     inkscape:pageshadow="2"
     inkscape:pageopacity="0"
     guidetolerance="10"
     gridtolerance="10"
     objecttolerance="10"
     borderopacity="1"
     bordercolor="#666666"
     pagecolor="#ffffff" /><metadata
     id="metadata16"><rdf:RDF><cc:Work
         rdf:about=""><dc:format>image/svg+xml</dc:format><dc:type
           rdf:resource="http://purl.org/dc/dcmitype/StillImage" /><dc:title /></cc:Work></rdf:RDF></metadata><defs
     id="defs14" /><g
     id="g18"
     transform="matrix(1.3333333,0,0,1.3333333,0,8.3989503e-6)"><g
       id="g20"><g
         id="g22"><path
           d="m 145.262,82.66 94.3,145.555"
           style="fill:none;stroke:#000000;stroke-width:2;stroke-linecap:butt;stroke-linejoin:miter;stroke-miterlimit:4;stroke-dasharray:none;stroke-opacity:1"
           id="path24" /></g><g
         id="g26"><path
           d="m 239.59,228.254 39.242,-86.422"
           style="fill:none;stroke:#000000;stroke-width:2;stroke-linecap:butt;stroke-linejoin:miter;stroke-miterlimit:4;stroke-dasharray:none;stroke-opacity:1"
           id="path28" /></g><g
         id="g30"><path
           d="m 138.098,93.035 89.175,137.637"
           style="fill:none;stroke:#000000;stroke-width:2;stroke-linecap:butt;stroke-linejoin:miter;stroke-miterlimit:4;stroke-dasharray:none;stroke-opacity:1"
           id="path32" /></g><g
         id="g34"><path
           d="m 168.242,171.465 c 17.035,24.98 32.988,46.605 58.926,59.281"
           style="fill:none;stroke:#000000;stroke-width:2;stroke-linecap:butt;stroke-linejoin:miter;stroke-miterlimit:4;stroke-dasharray:none;stroke-opacity:1"
           id="path36" /></g><g
         id="g38"><path
           d="m 239.469,228.07 c -3.539,3.407 -7.953,4.895 -12.301,2.676"
           style="fill:none;stroke:#000000;stroke-width:2;stroke-linecap:butt;stroke-linejoin:miter;stroke-miterlimit:4;stroke-dasharray:none;stroke-opacity:1"
           id="path40" /></g><g
         id="g42"><path
           d="m 245.379,85.199 c 14.57,16.653 23.926,31.145 33.445,51.578"
           style="fill:none;stroke:#000000;stroke-width:2;stroke-linecap:butt;stroke-linejoin:miter;stroke-miterlimit:4;stroke-dasharray:none;stroke-opacity:1"
           id="path44" /></g><g
         id="g46"><path
           d="M 168.441,171.777 C 152.609,146.023 139.391,122.621 138.422,93.77"
           style="fill:none;stroke:#000000;stroke-width:2;stroke-linecap:butt;stroke-linejoin:miter;stroke-miterlimit:4;stroke-dasharray:none;stroke-opacity:1"
           id="path48" /></g><g
         id="g50"><path
           d="m 145.895,83.633 c -4.555,1.84 -7.719,5.262 -7.473,10.137"
           style="fill:none;stroke:#000000;stroke-width:2;stroke-linecap:butt;stroke-linejoin:miter;stroke-miterlimit:4;stroke-dasharray:none;stroke-opacity:1"
           id="path52" /></g><g
         id="g54"><path
           d="m 262.82,285.914 c -20.39,-8.953 -28.359,-13.453 -39.261,-22.488 -27.899,-21.121 -50.481,-49.672 -70.317,-82.063 -23.554,-43.386 -27.894,-69.758 -25.59,-90.25 0.45,-3.754 2.043,-8.051 7.508,-14.179 16.192,-16.289 38.367,-25.364 58.332,-34.586 19.965,-9.227 38.434,-16.293 56.133,-23.11"
           style="fill:none;stroke:#ff0000;stroke-width:2;stroke-linecap:butt;stroke-linejoin:miter;stroke-miterlimit:4;stroke-dasharray:none;stroke-opacity:1"
           id="path56" /></g><g
         id="g58"><path
           d="m 376.949,189.5 c -19.719,-3.137 -38.277,-4.648 -61.363,-0.594 -12.621,2.055 -21.277,6.903 -29.789,11.399 -19.266,10.156 -29.652,18.898 -42.985,28.316"
           style="fill:none;stroke:#0000ff;stroke-width:1.00001;stroke-linecap:butt;stroke-linejoin:miter;stroke-miterlimit:4;stroke-dasharray:none;stroke-opacity:1"
           id="path60" /></g><g
         id="g62"><path
           d="m 377.02,89.676 c -10.657,4.844 -20.86,7.961 -34.954,9.238 -14.089,1.277 -30.57,0.383 -47.726,-1.789 -17.156,-2.172 -32.84,-9.52 -46.715,-15.273"
           style="fill:none;stroke:#0000ff;stroke-width:1.00001;stroke-linecap:butt;stroke-linejoin:miter;stroke-miterlimit:4;stroke-dasharray:none;stroke-opacity:1"
           id="path64" /></g><g
         id="g66"><path
           d="m 382.277,56.398 c -25.527,0.219 -57.019,4.254 -79.601,8.809 -22.582,4.551 -33.168,7.227 -46.246,12.66"
           style="fill:none;stroke:#0000ff;stroke-width:1.00001;stroke-linecap:butt;stroke-linejoin:miter;stroke-miterlimit:4;stroke-dasharray:none;stroke-opacity:1"
           id="path68" /></g><g
         id="g70"><path
           d="m 238.211,232.531 c 21.203,-3.593 45.008,-5.969 69.062,-6.203 24.059,-0.238 51.293,-0.078 75.086,3.453"
           style="fill:none;stroke:#0000ff;stroke-width:1.00001;stroke-linecap:butt;stroke-linejoin:miter;stroke-miterlimit:4;stroke-dasharray:none;stroke-opacity:1"
           id="path72" /></g><g
         id="g74"><path
           d="m 229.137,234.344 c 0,0 12.445,24.718 12.578,25.09"
           style="fill:none;stroke:#0000ff;stroke-width:1.00001;stroke-linecap:butt;stroke-linejoin:miter;stroke-miterlimit:4;stroke-dasharray:none;stroke-opacity:1"
           id="path76" /></g><g
         id="g78"><path
           d="m 229.137,234.344 c 0,0 13.152,14.328 13.285,14.695"
           style="fill:none;stroke:#0000ff;stroke-width:1.00001;stroke-linecap:butt;stroke-linejoin:miter;stroke-miterlimit:4;stroke-dasharray:none;stroke-opacity:1"
           id="path80" /></g><g
         id="g82"><path
           d="m 229.137,234.344 c 0,0 20.113,8.656 20.246,9.023"
           style="fill:none;stroke:#0000ff;stroke-width:1.00001;stroke-linecap:butt;stroke-linejoin:miter;stroke-miterlimit:4;stroke-dasharray:none;stroke-opacity:1"
           id="path84" /></g><g
         id="g86"><path
           d="m 166.684,71.625 -22.817,8.883 13.442,-10.61"
           style="fill:none;stroke:#0000ff;stroke-width:1.00001;stroke-linecap:butt;stroke-linejoin:miter;stroke-miterlimit:4;stroke-dasharray:none;stroke-opacity:1"
           id="path88" /></g><g
         id="g90"><path
           d="m 143.867,80.508 3.821,-6.949"
           style="fill:none;stroke:#0000ff;stroke-width:1.00001;stroke-linecap:butt;stroke-linejoin:miter;stroke-miterlimit:4;stroke-dasharray:none;stroke-opacity:1"
           id="path92" /></g><g
         id="g94"><path
           d="m 278.68,136.469 c 0.707,1.836 0.925,3.648 0.152,5.363"
           style="fill:none;stroke:#000000;stroke-width:2;stroke-linecap:butt;stroke-linejoin:miter;stroke-miterlimit:4;stroke-dasharray:none;stroke-opacity:1"
           id="path96" /></g><g
         id="g98"><path
           d="m 145.895,83.633 94.91,-0.496"
           style="fill:none;stroke:#000000;stroke-width:2;stroke-linecap:butt;stroke-linejoin:miter;stroke-miterlimit:4;stroke-dasharray:none;stroke-opacity:1"
           id="path100" /></g><g
         id="g102"><path
           d="m 245.637,85.469 c -1.387,-1.399 -2.949,-2.34 -4.832,-2.332"
           style="fill:none;stroke:#000000;stroke-width:2;stroke-linecap:butt;stroke-linejoin:miter;stroke-miterlimit:4;stroke-dasharray:none;stroke-opacity:1"
           id="path104" /></g><g
         id="g106"><path
           d="m 268.598,179.043 c 0,0 3.429,-3.703 6.906,-2.805 3.476,0.899 5.375,2.617 5.73,7.09 0.352,4.469 -4.82,14.156 -8.414,16.742 -3.593,2.586 -5.672,3.231 -7.972,1.262 -2.297,-1.973 -1.633,-8.852 -1.633,-8.852"
           style="fill:none;stroke:#0000ff;stroke-width:1.00001;stroke-linecap:butt;stroke-linejoin:miter;stroke-miterlimit:4;stroke-dasharray:none;stroke-opacity:1"
           id="path108" /></g><g
         id="g110"
         transform="matrix(0.925947,-1,1,0.925947,0,0)"><path
           d="m 40.444,233.868 1.466,-1.467 -5.135,1.466 5.137,1.469 z"
           style="fill:#0000ff;fill-opacity:1;fill-rule:evenodd;stroke:#0000ff;stroke-width:0.391337;stroke-linecap:butt;stroke-linejoin:miter;stroke-miterlimit:4;stroke-dasharray:none;stroke-opacity:1"
           id="path112" /></g><g
         id="g114"><path
           d="m 278.344,115.023 c 0,0 3.347,1.75 5.035,-0.246 1.691,-1.996 2.164,-4.082 0.726,-7.836 -1.433,-3.753 -7.988,-9.718 -11.023,-10.507 -3.035,-0.786 -4.477,-0.551 -5.09,1.886 -0.613,2.434 2.297,7.77 2.297,7.77"
           style="fill:none;stroke:#0000ff;stroke-width:1.00063;stroke-linecap:butt;stroke-linejoin:miter;stroke-miterlimit:4;stroke-dasharray:none;stroke-opacity:1"
           id="path116" /></g><g
         id="g118"
         transform="matrix(1,0.523057,-0.523057,1,0,0)"><path
           d="m 269.336,-24.003 1.773,-1.771 -6.206,1.773 6.205,1.774 z"
           style="fill:#0000ff;fill-opacity:1;fill-rule:evenodd;stroke:#0000ff;stroke-width:0.472887;stroke-linecap:butt;stroke-linejoin:miter;stroke-miterlimit:4;stroke-dasharray:none;stroke-opacity:1"
           id="path120" /></g><text
         transform="translate(456.41061,24.014594)"
         style="font-variant:normal;font-weight:normal;font-size:16px;font-family:Verdana;-inkscape-font-specification:Verdana;writing-mode:lr-tb;fill:#000000;fill-opacity:1;fill-rule:nonzero;stroke:none"
         id="text124"><tspan
           x="16.863987"
           id="tspan122" /></text><path
         d="m 56.281,260.18 v -3.657 c 0,-0.515 0.024,-0.609 0.727,-0.609 h 1.851 c 1.453,0 1.969,1.266 1.969,2.063 0,0.961 -0.726,2.203 -2.39,2.203 z m 3.516,0.14 c 1.453,-0.281 2.484,-1.242 2.484,-2.343 0,-1.289 -1.383,-2.532 -3.328,-2.532 h -5.461 v 0.469 h 0.352 c 1.148,0 1.195,0.164 1.195,0.703 v 7.875 c 0,0.539 -0.047,0.703 -1.195,0.703 h -0.352 v 0.469 h 5.86 c 1.992,0 3.328,-1.336 3.328,-2.742 0,-1.289 -1.219,-2.414 -2.883,-2.602 z m -0.914,4.875 h -1.875 c -0.703,0 -0.727,-0.093 -0.727,-0.586 v -4.078 h 2.813 c 1.476,0 2.109,1.383 2.109,2.391 0,1.055 -0.797,2.273 -2.32,2.273 z"
         style="fill:#000000;fill-opacity:1;fill-rule:nonzero;stroke:none"
         id="path126" /><path
         d="m 70.57,262.453 c 0,-1.898 -1.476,-3.492 -3.281,-3.492 -1.875,0 -3.328,1.641 -3.328,3.492 0,1.945 1.547,3.375 3.305,3.375 1.804,0 3.304,-1.476 3.304,-3.375 z m -3.281,3 c -0.656,0 -1.312,-0.305 -1.711,-1.008 -0.375,-0.656 -0.375,-1.57 -0.375,-2.109 0,-0.586 0,-1.383 0.352,-2.039 0.398,-0.68 1.101,-1.008 1.711,-1.008 0.656,0 1.289,0.328 1.687,0.984 0.399,0.633 0.399,1.5 0.399,2.063 0,0.539 0,1.359 -0.329,2.016 -0.351,0.679 -1.007,1.101 -1.734,1.101 z"
         style="fill:#000000;fill-opacity:1;fill-rule:nonzero;stroke:none"
         id="path128" /><path
         d="m 79.852,260.648 c 0.257,-0.75 0.726,-0.96 1.265,-0.96 v -0.469 c -0.351,0.023 -0.773,0.047 -1.101,0.047 -0.446,0 -1.102,-0.024 -1.383,-0.047 v 0.469 c 0.539,0 0.867,0.281 0.867,0.703 0,0.093 0,0.14 -0.094,0.328 l -1.359,3.82 -1.477,-4.172 c -0.047,-0.187 -0.07,-0.211 -0.07,-0.281 0,-0.398 0.586,-0.398 0.891,-0.398 v -0.469 c -0.446,0.023 -1.196,0.047 -1.571,0.047 -0.445,0 -0.867,-0.024 -1.312,-0.047 v 0.469 c 0.539,0 0.773,0.023 0.937,0.21 0.071,0.094 0.235,0.54 0.328,0.821 l -1.265,3.633 -1.43,-3.985 c -0.07,-0.187 -0.07,-0.211 -0.07,-0.281 0,-0.398 0.586,-0.398 0.867,-0.398 v -0.469 c -0.445,0.023 -1.289,0.047 -1.617,0.047 -0.07,0 -0.867,-0.024 -1.406,-0.047 v 0.469 c 0.75,0 0.937,0.046 1.125,0.515 l 1.875,5.297 c 0.07,0.211 0.117,0.328 0.304,0.328 0.211,0 0.235,-0.094 0.305,-0.305 l 1.523,-4.218 1.524,4.242 c 0.047,0.164 0.094,0.281 0.304,0.281 0.188,0 0.235,-0.14 0.282,-0.281 z"
         style="fill:#000000;fill-opacity:1;fill-rule:nonzero;stroke:none"
         id="path130" /><path
         d="m 89.492,262.758 c 0.328,0.07 1.547,0.304 1.547,1.383 0,0.75 -0.516,1.359 -1.687,1.359 -1.266,0 -1.805,-0.844 -2.086,-2.133 -0.047,-0.187 -0.047,-0.234 -0.211,-0.234 -0.188,0 -0.188,0.094 -0.188,0.351 v 1.993 c 0,0.257 0,0.351 0.164,0.351 0.071,0 0.094,-0.023 0.375,-0.305 0.024,-0.023 0.024,-0.046 0.305,-0.328 0.656,0.61 1.336,0.633 1.641,0.633 1.71,0 2.414,-1.008 2.414,-2.086 0,-0.773 -0.446,-1.242 -0.633,-1.406 -0.492,-0.492 -1.078,-0.609 -1.711,-0.727 -0.844,-0.164 -1.828,-0.351 -1.828,-1.218 0,-0.539 0.375,-1.149 1.664,-1.149 1.64,0 1.734,1.36 1.758,1.805 0,0.141 0.14,0.141 0.164,0.141 0.211,0 0.211,-0.071 0.211,-0.352 v -1.524 c 0,-0.234 0,-0.351 -0.164,-0.351 -0.071,0 -0.118,0 -0.305,0.187 -0.047,0.047 -0.188,0.188 -0.258,0.235 -0.562,-0.422 -1.172,-0.422 -1.406,-0.422 -1.828,0 -2.391,1.008 -2.391,1.851 0,0.516 0.235,0.938 0.633,1.266 0.492,0.375 0.914,0.469 1.992,0.68 z"
         style="fill:#000000;fill-opacity:1;fill-rule:nonzero;stroke:none"
         id="path132" /><path
         d="m 93.91,264.539 c 0,0.656 -0.164,0.656 -1.172,0.656 v 0.469 c 0.539,-0.023 1.289,-0.047 1.711,-0.047 0.375,0 1.149,0.024 1.664,0.047 v -0.469 c -1.008,0 -1.172,0 -1.172,-0.656 v -2.766 c 0,-1.546 1.079,-2.39 2.016,-2.39 0.961,0 1.125,0.797 1.125,1.664 v 3.492 c 0,0.656 -0.164,0.656 -1.172,0.656 v 0.469 c 0.516,-0.023 1.289,-0.047 1.688,-0.047 0.375,0 1.172,0.024 1.664,0.047 v -0.469 c -0.774,0 -1.149,0 -1.149,-0.445 v -2.859 c 0,-1.289 0,-1.735 -0.468,-2.274 -0.211,-0.258 -0.704,-0.562 -1.571,-0.562 -1.265,0 -1.922,0.89 -2.179,1.476 v -5.25 l -2.157,0.164 v 0.469 c 1.055,0 1.172,0.094 1.172,0.844 z"
         style="fill:#000000;fill-opacity:1;fill-rule:nonzero;stroke:none"
         id="path134" /><path
         d="m 107.605,262.453 c 0,-1.898 -1.476,-3.492 -3.281,-3.492 -1.875,0 -3.328,1.641 -3.328,3.492 0,1.945 1.547,3.375 3.305,3.375 1.804,0 3.304,-1.476 3.304,-3.375 z m -3.281,3 c -0.656,0 -1.312,-0.305 -1.711,-1.008 -0.375,-0.656 -0.375,-1.57 -0.375,-2.109 0,-0.586 0,-1.383 0.352,-2.039 0.398,-0.68 1.101,-1.008 1.711,-1.008 0.656,0 1.289,0.328 1.687,0.984 0.399,0.633 0.399,1.5 0.399,2.063 0,0.539 0,1.359 -0.328,2.016 -0.352,0.679 -1.008,1.101 -1.735,1.101 z"
         style="fill:#000000;fill-opacity:1;fill-rule:nonzero;stroke:none"
         id="path136" /><path
         d="m 110.207,262.406 c 0,-2.437 1.219,-3.07 2.016,-3.07 0.14,0 1.078,0.023 1.593,0.562 -0.609,0.047 -0.703,0.493 -0.703,0.68 0,0.399 0.282,0.68 0.68,0.68 0.398,0 0.703,-0.235 0.703,-0.703 0,-1.008 -1.148,-1.594 -2.297,-1.594 -1.875,0 -3.234,1.617 -3.234,3.469 0,1.922 1.476,3.398 3.211,3.398 1.992,0 2.484,-1.805 2.484,-1.945 0,-0.141 -0.164,-0.141 -0.211,-0.141 -0.117,0 -0.164,0.047 -0.187,0.141 -0.422,1.383 -1.407,1.57 -1.946,1.57 -0.796,0 -2.109,-0.633 -2.109,-3.047 z"
         style="fill:#000000;fill-opacity:1;fill-rule:nonzero;stroke:none"
         id="path138" /><path
         d="m 116.281,264.539 c 0,0.656 -0.164,0.656 -1.172,0.656 v 0.469 c 0.493,-0.023 1.196,-0.047 1.618,-0.047 0.468,0 1.054,0.024 1.664,0.047 v -0.469 c -1.008,0 -1.172,0 -1.172,-0.656 v -1.547 l 0.961,-0.82 c 1.148,1.57 1.781,2.414 1.781,2.695 0,0.281 -0.258,0.328 -0.539,0.328 v 0.469 c 0.398,-0.023 1.289,-0.047 1.617,-0.047 0.422,0 0.867,0.024 1.289,0.047 v -0.469 c -0.562,0 -0.89,0 -1.453,-0.797 l -1.898,-2.671 c -0.024,-0.024 -0.094,-0.118 -0.094,-0.165 0,-0.046 1.078,-0.96 1.219,-1.078 0.937,-0.75 1.57,-0.796 1.875,-0.796 v -0.469 c -0.422,0.047 -0.61,0.047 -1.032,0.047 -0.539,0 -1.476,-0.024 -1.687,-0.047 v 0.469 c 0.281,0 0.445,0.164 0.445,0.374 0,0.305 -0.211,0.469 -0.328,0.586 l -2.109,1.805 v -7.172 l -2.157,0.164 v 0.469 c 1.055,0 1.172,0.094 1.172,0.844 z"
         style="fill:#000000;fill-opacity:1;fill-rule:nonzero;stroke:none"
         id="path140" /><path
         d="m 136.809,260.648 c 0.257,-0.75 0.726,-0.96 1.265,-0.96 v -0.469 c -0.351,0.023 -0.773,0.047 -1.101,0.047 -0.446,0 -1.102,-0.024 -1.383,-0.047 v 0.469 c 0.539,0 0.867,0.281 0.867,0.703 0,0.093 0,0.14 -0.094,0.328 l -1.359,3.82 -1.477,-4.172 c -0.047,-0.187 -0.07,-0.211 -0.07,-0.281 0,-0.398 0.586,-0.398 0.891,-0.398 v -0.469 c -0.446,0.023 -1.196,0.047 -1.571,0.047 -0.445,0 -0.867,-0.024 -1.312,-0.047 v 0.469 c 0.539,0 0.773,0.023 0.937,0.21 0.071,0.094 0.235,0.54 0.328,0.821 l -1.265,3.633 -1.43,-3.985 c -0.07,-0.187 -0.07,-0.211 -0.07,-0.281 0,-0.398 0.586,-0.398 0.867,-0.398 v -0.469 c -0.445,0.023 -1.289,0.047 -1.617,0.047 -0.07,0 -0.867,-0.024 -1.406,-0.047 v 0.469 c 0.75,0 0.937,0.046 1.125,0.515 l 1.875,5.297 c 0.07,0.211 0.117,0.328 0.304,0.328 0.211,0 0.235,-0.094 0.305,-0.305 l 1.523,-4.218 1.524,4.242 c 0.047,0.164 0.094,0.281 0.305,0.281 0.187,0 0.234,-0.14 0.281,-0.281 z"
         style="fill:#000000;fill-opacity:1;fill-rule:nonzero;stroke:none"
         id="path142" /><path
         d="m 142.891,264.539 c 0.07,0.586 0.468,1.219 1.171,1.219 0.329,0 1.243,-0.211 1.243,-1.43 v -0.844 h -0.375 v 0.844 c 0,0.867 -0.375,0.961 -0.539,0.961 -0.493,0 -0.563,-0.68 -0.563,-0.75 v -2.977 c 0,-0.632 0,-1.218 -0.539,-1.781 -0.586,-0.586 -1.336,-0.82 -2.039,-0.82 -1.242,0 -2.273,0.703 -2.273,1.687 0,0.446 0.304,0.704 0.703,0.704 0.422,0 0.679,-0.305 0.679,-0.68 0,-0.188 -0.07,-0.68 -0.773,-0.68 0.422,-0.539 1.148,-0.703 1.617,-0.703 0.75,0 1.594,0.586 1.594,1.922 v 0.539 c -0.774,0.047 -1.805,0.094 -2.742,0.539 -1.125,0.516 -1.5,1.289 -1.5,1.945 0,1.219 1.453,1.594 2.39,1.594 0.985,0 1.664,-0.609 1.946,-1.289 z m -0.094,-2.461 v 1.5 c 0,1.406 -1.078,1.922 -1.758,1.922 -0.727,0 -1.336,-0.516 -1.336,-1.266 0,-0.82 0.633,-2.062 3.094,-2.156 z"
         style="fill:#000000;fill-opacity:1;fill-rule:nonzero;stroke:none"
         id="path144" /><path
         d="m 151.188,260.695 c 0.14,-0.351 0.398,-1.007 1.382,-1.007 v -0.469 c -0.351,0.023 -0.773,0.047 -1.125,0.047 -0.351,0 -1.031,-0.024 -1.289,-0.047 v 0.469 c 0.539,0 0.703,0.351 0.703,0.632 0,0.141 -0.023,0.211 -0.07,0.375 l -1.547,3.797 -1.664,-4.172 c -0.094,-0.187 -0.094,-0.211 -0.094,-0.258 0,-0.374 0.586,-0.374 0.868,-0.374 v -0.469 c -0.469,0.023 -1.29,0.047 -1.641,0.047 -0.399,0 -1.008,-0.024 -1.453,-0.047 v 0.469 c 0.937,0 1.008,0.093 1.195,0.539 l 2.156,5.32 c 0.094,0.211 0.118,0.281 0.305,0.281 0.211,0 0.258,-0.14 0.328,-0.281 z"
         style="fill:#000000;fill-opacity:1;fill-rule:nonzero;stroke:none"
         id="path146" /><path
         d="m 154.125,261.891 c 0.094,-2.227 1.359,-2.602 1.875,-2.602 1.523,0 1.688,2.016 1.688,2.602 z m 0,0.328 h 4.172 c 0.328,0 0.375,0 0.375,-0.328 0,-1.477 -0.82,-2.93 -2.672,-2.93 -1.734,0 -3.117,1.547 -3.117,3.422 0,1.992 1.57,3.445 3.281,3.445 1.828,0 2.508,-1.664 2.508,-1.945 0,-0.141 -0.117,-0.188 -0.211,-0.188 -0.117,0 -0.164,0.094 -0.188,0.211 -0.515,1.547 -1.875,1.547 -2.015,1.547 -0.75,0 -1.336,-0.445 -1.688,-1.008 -0.445,-0.703 -0.445,-1.687 -0.445,-2.226 z"
         style="fill:#000000;fill-opacity:1;fill-rule:nonzero;stroke:none"
         id="path148" /><g
         id="g150"><path
           d="m 163.016,261.879 h 16.007 l 19.954,-19.953"
           style="fill:none;stroke:#000000;stroke-width:0.749999;stroke-linecap:butt;stroke-linejoin:miter;stroke-miterlimit:4;stroke-dasharray:none;stroke-opacity:1"
           id="path152" /></g><g
         id="g154"
         transform="matrix(1,-1,1,1,0,0)"><path
           d="m -20.436,220.451 c 0,0.586 -0.474,1.061 -1.06,1.061 -0.586,0 -1.061,-0.475 -1.061,-1.061 0,-0.586 0.475,-1.06 1.061,-1.06 0.586,0 1.06,0.474 1.06,1.06 z"
           style="fill:#000000;fill-opacity:1;fill-rule:evenodd;stroke:#000000;stroke-width:0.282842;stroke-linecap:butt;stroke-linejoin:miter;stroke-miterlimit:4;stroke-dasharray:none;stroke-opacity:1"
           id="path156" /></g><path
         d="m 286.895,275.723 c 0,0.539 -0.047,0.703 -1.196,0.703 h -0.351 v 0.469 h 8.625 l 0.632,-3.868 h -0.375 c -0.375,2.321 -0.726,3.399 -3.281,3.399 h -1.992 c -0.703,0 -0.727,-0.094 -0.727,-0.586 v -4.008 h 1.336 c 1.454,0 1.618,0.492 1.618,1.758 h 0.375 v -3.961 h -0.375 c 0,1.289 -0.164,1.758 -1.618,1.758 h -1.336 v -3.61 c 0,-0.492 0.024,-0.586 0.727,-0.586 h 1.922 c 2.297,0 2.695,0.821 2.93,2.907 h 0.375 l -0.422,-3.375 h -8.414 v 0.468 h 0.351 c 1.149,0 1.196,0.164 1.196,0.704 z"
         style="fill:#000000;fill-opacity:1;fill-rule:nonzero;stroke:none"
         id="path158" /><path
         d="m 299.316,273.379 c 0.446,-0.563 1.008,-1.289 1.383,-1.688 0.469,-0.539 1.078,-0.773 1.781,-0.773 v -0.469 c -0.398,0.024 -0.843,0.047 -1.242,0.047 -0.445,0 -1.242,-0.023 -1.429,-0.047 v 0.469 c 0.328,0.023 0.445,0.211 0.445,0.469 0,0.234 -0.164,0.422 -0.234,0.515 l -0.915,1.172 -1.171,-1.523 c -0.141,-0.141 -0.141,-0.164 -0.141,-0.258 0,-0.234 0.234,-0.375 0.516,-0.375 v -0.469 c -0.375,0.024 -1.36,0.047 -1.618,0.047 -0.304,0 -1.007,-0.023 -1.406,-0.047 v 0.469 c 1.055,0 1.055,0 1.758,0.914 l 1.477,1.922 -1.407,1.781 c -0.703,0.867 -1.593,0.891 -1.898,0.891 v 0.469 c 0.375,-0.024 0.844,-0.047 1.242,-0.047 0.422,0 1.055,0.023 1.406,0.047 v -0.469 c -0.328,-0.047 -0.422,-0.235 -0.422,-0.469 0,-0.328 0.422,-0.82 1.336,-1.898 l 1.149,1.5 c 0.117,0.164 0.304,0.398 0.304,0.492 0,0.14 -0.14,0.375 -0.539,0.375 v 0.469 c 0.446,-0.024 1.289,-0.047 1.618,-0.047 0.398,0 0.984,0.023 1.429,0.047 v -0.469 c -0.797,0 -1.078,-0.024 -1.406,-0.469 z"
         style="fill:#000000;fill-opacity:1;fill-rule:nonzero;stroke:none"
         id="path160" /><path
         d="m 305.492,271.27 v -0.985 l -2.156,0.164 v 0.469 c 1.055,0 1.172,0.094 1.172,0.75 v 6.984 c 0,0.68 -0.164,0.68 -1.172,0.68 v 0.469 c 0.516,-0.024 1.289,-0.047 1.664,-0.047 0.422,0 1.172,0.023 1.688,0.047 v -0.469 c -0.985,0 -1.149,0 -1.149,-0.68 v -2.648 c 0.07,0.258 0.703,1.055 1.828,1.055 1.781,0 3.328,-1.477 3.328,-3.399 0,-1.898 -1.429,-3.375 -3.117,-3.375 -1.172,0 -1.805,0.656 -2.086,0.985 z m 0.047,3.914 v -3.329 c 0.422,-0.773 1.149,-1.195 1.922,-1.195 1.101,0 1.992,1.313 1.992,3 0,1.805 -1.031,3.07 -2.133,3.07 -0.609,0 -1.172,-0.304 -1.57,-0.914 -0.211,-0.304 -0.211,-0.328 -0.211,-0.632 z"
         style="fill:#000000;fill-opacity:1;fill-rule:nonzero;stroke:none"
         id="path162" /><path
         d="m 316.184,275.77 c 0.07,0.585 0.468,1.218 1.171,1.218 0.329,0 1.243,-0.211 1.243,-1.429 v -0.844 h -0.375 v 0.844 c 0,0.867 -0.375,0.961 -0.539,0.961 -0.493,0 -0.563,-0.68 -0.563,-0.75 v -2.977 c 0,-0.633 0,-1.219 -0.539,-1.781 -0.586,-0.586 -1.336,-0.821 -2.039,-0.821 -1.242,0 -2.273,0.704 -2.273,1.688 0,0.445 0.304,0.703 0.703,0.703 0.422,0 0.679,-0.305 0.679,-0.68 0,-0.187 -0.07,-0.679 -0.773,-0.679 0.422,-0.539 1.148,-0.703 1.617,-0.703 0.75,0 1.594,0.585 1.594,1.921 v 0.539 c -0.774,0.047 -1.805,0.094 -2.742,0.54 -1.125,0.515 -1.5,1.289 -1.5,1.945 0,1.219 1.453,1.594 2.39,1.594 0.985,0 1.664,-0.61 1.946,-1.289 z m -0.094,-2.461 v 1.5 c 0,1.406 -1.078,1.921 -1.758,1.921 -0.727,0 -1.336,-0.515 -1.336,-1.265 0,-0.82 0.633,-2.063 3.094,-2.156 z"
         style="fill:#000000;fill-opacity:1;fill-rule:nonzero;stroke:none"
         id="path164" /><path
         d="m 320.328,271.762 v 4.008 c 0,0.656 -0.164,0.656 -1.172,0.656 v 0.469 c 0.539,-0.024 1.289,-0.047 1.711,-0.047 0.375,0 1.149,0.023 1.664,0.047 v -0.469 c -1.008,0 -1.172,0 -1.172,-0.656 v -2.766 c 0,-1.547 1.079,-2.391 2.016,-2.391 0.961,0 1.125,0.797 1.125,1.664 v 3.493 c 0,0.656 -0.164,0.656 -1.172,0.656 v 0.469 c 0.516,-0.024 1.289,-0.047 1.688,-0.047 0.375,0 1.172,0.023 1.664,0.047 v -0.469 c -0.774,0 -1.149,0 -1.149,-0.446 v -2.859 c 0,-1.289 0,-1.734 -0.469,-2.273 -0.21,-0.258 -0.703,-0.563 -1.57,-0.563 -1.101,0 -1.804,0.633 -2.226,1.57 v -1.57 l -2.11,0.164 v 0.469 c 1.055,0 1.172,0.094 1.172,0.844 z"
         style="fill:#000000;fill-opacity:1;fill-rule:nonzero;stroke:none"
         id="path166" /><path
         d="m 330.109,273.988 c 0.329,0.071 1.547,0.305 1.547,1.383 0,0.75 -0.515,1.359 -1.687,1.359 -1.266,0 -1.805,-0.843 -2.086,-2.132 -0.047,-0.188 -0.047,-0.235 -0.211,-0.235 -0.188,0 -0.188,0.094 -0.188,0.352 v 1.992 c 0,0.258 0,0.352 0.164,0.352 0.071,0 0.094,-0.024 0.375,-0.305 0.024,-0.024 0.024,-0.047 0.305,-0.328 0.656,0.609 1.336,0.633 1.641,0.633 1.711,0 2.414,-1.008 2.414,-2.086 0,-0.774 -0.445,-1.243 -0.633,-1.407 -0.492,-0.492 -1.078,-0.609 -1.711,-0.726 -0.844,-0.164 -1.828,-0.352 -1.828,-1.219 0,-0.539 0.375,-1.148 1.664,-1.148 1.641,0 1.734,1.359 1.758,1.804 0,0.141 0.14,0.141 0.164,0.141 0.211,0 0.211,-0.07 0.211,-0.352 v -1.523 c 0,-0.234 0,-0.352 -0.164,-0.352 -0.071,0 -0.117,0 -0.305,0.188 -0.047,0.047 -0.187,0.187 -0.258,0.234 -0.562,-0.422 -1.172,-0.422 -1.406,-0.422 -1.828,0 -2.391,1.008 -2.391,1.852 0,0.516 0.235,0.937 0.633,1.266 0.492,0.375 0.914,0.468 1.992,0.679 z"
         style="fill:#000000;fill-opacity:1;fill-rule:nonzero;stroke:none"
         id="path168" /><path
         d="m 335.535,270.285 -2.086,0.164 v 0.469 c 0.961,0 1.102,0.094 1.102,0.82 v 4.032 c 0,0.656 -0.164,0.656 -1.172,0.656 v 0.469 c 0.469,-0.024 1.289,-0.047 1.641,-0.047 0.539,0 1.054,0.023 1.57,0.047 v -0.469 c -1.008,0 -1.055,-0.071 -1.055,-0.656 z m 0.047,-2.601 c 0,-0.469 -0.352,-0.797 -0.773,-0.797 -0.469,0 -0.797,0.398 -0.797,0.797 0,0.398 0.328,0.796 0.797,0.796 0.421,0 0.773,-0.328 0.773,-0.796 z"
         style="fill:#000000;fill-opacity:1;fill-rule:nonzero;stroke:none"
         id="path170" /><path
         d="m 344.066,273.684 c 0,-1.899 -1.476,-3.493 -3.281,-3.493 -1.875,0 -3.328,1.641 -3.328,3.493 0,1.945 1.547,3.375 3.305,3.375 1.804,0 3.304,-1.477 3.304,-3.375 z m -3.281,3 c -0.656,0 -1.312,-0.305 -1.711,-1.008 -0.375,-0.656 -0.375,-1.571 -0.375,-2.11 0,-0.586 0,-1.382 0.352,-2.039 0.398,-0.679 1.101,-1.007 1.711,-1.007 0.656,0 1.289,0.328 1.687,0.984 0.399,0.633 0.399,1.5 0.399,2.062 0,0.539 0,1.36 -0.328,2.016 -0.352,0.68 -1.008,1.102 -1.735,1.102 z"
         style="fill:#000000;fill-opacity:1;fill-rule:nonzero;stroke:none"
         id="path172" /><path
         d="m 346.148,271.762 v 4.008 c 0,0.656 -0.164,0.656 -1.171,0.656 v 0.469 c 0.539,-0.024 1.289,-0.047 1.711,-0.047 0.374,0 1.148,0.023 1.664,0.047 v -0.469 c -1.008,0 -1.172,0 -1.172,-0.656 v -2.766 c 0,-1.547 1.078,-2.391 2.015,-2.391 0.961,0 1.125,0.797 1.125,1.664 v 3.493 c 0,0.656 -0.164,0.656 -1.172,0.656 v 0.469 c 0.516,-0.024 1.29,-0.047 1.688,-0.047 0.375,0 1.172,0.023 1.664,0.047 v -0.469 c -0.773,0 -1.148,0 -1.148,-0.446 v -2.859 c 0,-1.289 0,-1.734 -0.469,-2.273 -0.211,-0.258 -0.703,-0.563 -1.571,-0.563 -1.101,0 -1.804,0.633 -2.226,1.57 v -1.57 l -2.109,0.164 v 0.469 c 1.054,0 1.171,0.094 1.171,0.844 z"
         style="fill:#000000;fill-opacity:1;fill-rule:nonzero;stroke:none"
         id="path174" /><path
         d="m 360.41,270.449 v -1.734 c 0,-1.313 0.703,-2.039 1.36,-2.039 0.046,0 0.281,0 0.492,0.117 -0.164,0.047 -0.446,0.258 -0.446,0.633 0,0.328 0.235,0.633 0.657,0.633 0.422,0 0.656,-0.305 0.656,-0.657 0,-0.562 -0.563,-1.054 -1.359,-1.054 -1.032,0 -2.321,0.797 -2.321,2.39 v 1.711 h -1.172 v 0.469 h 1.172 v 4.852 c 0,0.656 -0.164,0.656 -1.148,0.656 v 0.469 c 0.586,-0.024 1.289,-0.047 1.687,-0.047 0.61,0 1.313,0 1.899,0.047 v -0.469 h -0.305 c -1.102,0 -1.125,-0.164 -1.125,-0.703 v -4.805 h 1.688 v -0.469 z"
         style="fill:#000000;fill-opacity:1;fill-rule:nonzero;stroke:none"
         id="path176" /><path
         d="m 367.324,275.77 c 0.071,0.585 0.469,1.218 1.172,1.218 0.328,0 1.242,-0.211 1.242,-1.429 v -0.844 h -0.375 v 0.844 c 0,0.867 -0.375,0.961 -0.539,0.961 -0.492,0 -0.562,-0.68 -0.562,-0.75 v -2.977 c 0,-0.633 0,-1.219 -0.539,-1.781 -0.586,-0.586 -1.336,-0.821 -2.039,-0.821 -1.243,0 -2.274,0.704 -2.274,1.688 0,0.445 0.305,0.703 0.703,0.703 0.422,0 0.68,-0.305 0.68,-0.68 0,-0.187 -0.07,-0.679 -0.773,-0.679 0.421,-0.539 1.148,-0.703 1.617,-0.703 0.75,0 1.593,0.585 1.593,1.921 v 0.539 c -0.773,0.047 -1.804,0.094 -2.742,0.54 -1.125,0.515 -1.5,1.289 -1.5,1.945 0,1.219 1.453,1.594 2.391,1.594 0.984,0 1.664,-0.61 1.945,-1.289 z m -0.094,-2.461 v 1.5 c 0,1.406 -1.078,1.921 -1.757,1.921 -0.727,0 -1.336,-0.515 -1.336,-1.265 0,-0.82 0.633,-2.063 3.093,-2.156 z"
         style="fill:#000000;fill-opacity:1;fill-rule:nonzero;stroke:none"
         id="path178" /><path
         d="m 371.465,271.762 v 4.008 c 0,0.656 -0.164,0.656 -1.172,0.656 v 0.469 c 0.539,-0.024 1.289,-0.047 1.711,-0.047 0.375,0 1.148,0.023 1.664,0.047 v -0.469 c -1.008,0 -1.172,0 -1.172,-0.656 v -2.766 c 0,-1.547 1.078,-2.391 2.016,-2.391 0.961,0 1.125,0.797 1.125,1.664 v 3.493 c 0,0.656 -0.164,0.656 -1.172,0.656 v 0.469 c 0.515,-0.024 1.289,-0.047 1.687,-0.047 0.375,0 1.172,0.023 1.664,0.047 v -0.469 c -0.773,0 -1.148,0 -1.148,-0.446 v -2.859 c 0,-1.289 0,-1.734 -0.469,-2.273 -0.211,-0.258 -0.703,-0.563 -1.57,-0.563 -1.102,0 -1.805,0.633 -2.227,1.57 v -1.57 l -2.109,0.164 v 0.469 c 1.055,0 1.172,0.094 1.172,0.844 z"
         style="fill:#000000;fill-opacity:1;fill-rule:nonzero;stroke:none"
         id="path180" /><g
         id="g182"><path
           d="M 280.52,271.699 H 264.508 L 244.559,251.746"
           style="fill:none;stroke:#000000;stroke-width:0.749999;stroke-linecap:butt;stroke-linejoin:miter;stroke-miterlimit:4;stroke-dasharray:none;stroke-opacity:1"
           id="path184" /></g><g
         id="g186"
         transform="matrix(-0.999999,-1,1,-0.999999,0,0)"><path
           d="m -247.113,-3.594 c 0,0.586 -0.475,1.061 -1.061,1.061 -0.586,0 -1.061,-0.475 -1.061,-1.061 0,-0.586 0.475,-1.06 1.061,-1.06 0.586,0 1.061,0.474 1.061,1.06 z"
           style="fill:#000000;fill-opacity:1;fill-rule:evenodd;stroke:#000000;stroke-width:0.282842;stroke-linecap:butt;stroke-linejoin:miter;stroke-miterlimit:4;stroke-dasharray:none;stroke-opacity:1"
           id="path188" /></g><path
         d="m 289.738,42.043 -1.922,-0.445 c -0.937,-0.235 -1.5,-1.032 -1.5,-1.899 0,-1.054 0.797,-1.969 1.969,-1.969 2.485,0 2.813,2.461 2.906,3.118 0.024,0.093 0.024,0.187 0.188,0.187 0.187,0 0.187,-0.07 0.187,-0.351 v -3 c 0,-0.258 0,-0.375 -0.164,-0.375 -0.093,0 -0.117,0.023 -0.211,0.211 l -0.539,0.843 c -0.445,-0.445 -1.054,-1.054 -2.39,-1.054 -1.664,0 -2.907,1.312 -2.907,2.906 0,1.242 0.797,2.344 1.946,2.742 0.164,0.047 0.937,0.234 1.992,0.492 0.398,0.094 0.844,0.211 1.266,0.75 0.304,0.399 0.468,0.891 0.468,1.383 0,1.055 -0.75,2.133 -2.015,2.133 -0.422,0 -1.571,-0.07 -2.367,-0.797 -0.868,-0.82 -0.915,-1.758 -0.915,-2.297 -0.023,-0.164 -0.14,-0.164 -0.187,-0.164 -0.188,0 -0.188,0.117 -0.188,0.375 v 3 c 0,0.258 0,0.352 0.165,0.352 0.093,0 0.117,-0.024 0.21,-0.188 0,-0.023 0.047,-0.07 0.54,-0.867 0.468,0.516 1.429,1.055 2.765,1.055 1.735,0 2.93,-1.454 2.93,-3.118 0,-1.476 -0.985,-2.718 -2.227,-3.023 z"
         style="fill:#000000;fill-opacity:1;fill-rule:nonzero;stroke:none"
         id="path190" /><path
         d="m 294.477,44.082 c 0.093,-2.227 1.359,-2.602 1.875,-2.602 1.523,0 1.687,2.016 1.687,2.602 z m 0,0.328 h 4.171 c 0.329,0 0.375,0 0.375,-0.328 0,-1.477 -0.82,-2.93 -2.671,-2.93 -1.735,0 -3.118,1.547 -3.118,3.422 0,1.992 1.571,3.446 3.282,3.446 1.828,0 2.507,-1.665 2.507,-1.946 0,-0.14 -0.117,-0.187 -0.211,-0.187 -0.117,0 -0.164,0.093 -0.187,0.211 -0.516,1.547 -1.875,1.547 -2.016,1.547 -0.75,0 -1.336,-0.446 -1.687,-1.008 -0.445,-0.703 -0.445,-1.688 -0.445,-2.227 z"
         style="fill:#000000;fill-opacity:1;fill-rule:nonzero;stroke:none"
         id="path192" /><path
         d="m 302.031,42.23 v -0.984 l -2.156,0.164 v 0.469 c 1.055,0 1.172,0.094 1.172,0.75 v 6.984 c 0,0.68 -0.164,0.68 -1.172,0.68 v 0.469 c 0.516,-0.024 1.289,-0.047 1.664,-0.047 0.422,0 1.172,0.023 1.688,0.047 v -0.469 c -0.985,0 -1.149,0 -1.149,-0.68 v -2.648 c 0.07,0.258 0.703,1.055 1.828,1.055 1.782,0 3.328,-1.477 3.328,-3.399 0,-1.898 -1.429,-3.375 -3.117,-3.375 -1.172,0 -1.805,0.656 -2.086,0.984 z m 0.047,3.915 v -3.329 c 0.422,-0.773 1.149,-1.195 1.922,-1.195 1.102,0 1.992,1.313 1.992,3 0,1.805 -1.031,3.07 -2.133,3.07 -0.609,0 -1.171,-0.304 -1.57,-0.914 -0.211,-0.304 -0.211,-0.328 -0.211,-0.632 z"
         style="fill:#000000;fill-opacity:1;fill-rule:nonzero;stroke:none"
         id="path194" /><path
         d="m 312.727,46.73 c 0.07,0.586 0.468,1.219 1.171,1.219 0.329,0 1.243,-0.211 1.243,-1.429 v -0.844 h -0.375 v 0.844 c 0,0.867 -0.375,0.96 -0.539,0.96 -0.493,0 -0.563,-0.679 -0.563,-0.75 v -2.976 c 0,-0.633 0,-1.219 -0.539,-1.781 -0.586,-0.586 -1.336,-0.821 -2.039,-0.821 -1.242,0 -2.274,0.703 -2.274,1.688 0,0.445 0.305,0.703 0.704,0.703 0.422,0 0.679,-0.305 0.679,-0.68 0,-0.187 -0.07,-0.679 -0.773,-0.679 0.422,-0.539 1.148,-0.704 1.617,-0.704 0.75,0 1.594,0.586 1.594,1.922 v 0.539 c -0.774,0.047 -1.805,0.094 -2.742,0.539 -1.125,0.516 -1.5,1.29 -1.5,1.946 0,1.219 1.453,1.594 2.39,1.594 0.985,0 1.664,-0.61 1.946,-1.29 z m -0.094,-2.46 v 1.5 c 0,1.406 -1.078,1.921 -1.758,1.921 -0.727,0 -1.336,-0.515 -1.336,-1.265 0,-0.821 0.633,-2.063 3.094,-2.156 z"
         style="fill:#000000;fill-opacity:1;fill-rule:nonzero;stroke:none"
         id="path196" /><path
         d="m 317.738,42.887 v -1.641 l -2.086,0.164 v 0.469 c 1.055,0 1.172,0.094 1.172,0.844 v 4.007 c 0,0.657 -0.164,0.657 -1.172,0.657 v 0.468 c 0.586,-0.023 1.289,-0.046 1.711,-0.046 0.586,0 1.289,0 1.899,0.046 v -0.468 h -0.328 c -1.102,0 -1.125,-0.164 -1.125,-0.703 v -2.297 c 0,-1.477 0.632,-2.813 1.757,-2.813 0.094,0 0.141,0 0.164,0.024 -0.046,0 -0.351,0.187 -0.351,0.586 0,0.398 0.328,0.632 0.656,0.632 0.258,0 0.633,-0.187 0.633,-0.656 0,-0.469 -0.469,-0.914 -1.102,-0.914 -1.101,0 -1.64,1.008 -1.828,1.641 z"
         style="fill:#000000;fill-opacity:1;fill-rule:nonzero;stroke:none"
         id="path198" /><path
         d="m 326.051,46.73 c 0.07,0.586 0.469,1.219 1.172,1.219 0.328,0 1.242,-0.211 1.242,-1.429 v -0.844 h -0.375 v 0.844 c 0,0.867 -0.375,0.96 -0.539,0.96 -0.492,0 -0.563,-0.679 -0.563,-0.75 v -2.976 c 0,-0.633 0,-1.219 -0.539,-1.781 -0.586,-0.586 -1.336,-0.821 -2.039,-0.821 -1.242,0 -2.273,0.703 -2.273,1.688 0,0.445 0.304,0.703 0.703,0.703 0.422,0 0.68,-0.305 0.68,-0.68 0,-0.187 -0.071,-0.679 -0.774,-0.679 0.422,-0.539 1.149,-0.704 1.617,-0.704 0.75,0 1.594,0.586 1.594,1.922 v 0.539 c -0.773,0.047 -1.805,0.094 -2.742,0.539 -1.125,0.516 -1.5,1.29 -1.5,1.946 0,1.219 1.453,1.594 2.39,1.594 0.985,0 1.665,-0.61 1.946,-1.29 z m -0.094,-2.46 v 1.5 c 0,1.406 -1.078,1.921 -1.758,1.921 -0.726,0 -1.336,-0.515 -1.336,-1.265 0,-0.821 0.633,-2.063 3.094,-2.156 z"
         style="fill:#000000;fill-opacity:1;fill-rule:nonzero;stroke:none"
         id="path200" /><path
         d="m 331.133,41.879 h 2.156 V 41.41 h -2.156 v -2.742 h -0.375 c 0,1.219 -0.446,2.812 -1.922,2.883 v 0.328 h 1.266 v 4.125 c 0,1.828 1.406,2.016 1.945,2.016 1.055,0 1.476,-1.055 1.476,-2.016 V 45.16 h -0.375 v 0.82 c 0,1.102 -0.445,1.665 -1.007,1.665 -1.008,0 -1.008,-1.36 -1.008,-1.618 z"
         style="fill:#000000;fill-opacity:1;fill-rule:nonzero;stroke:none"
         id="path202" /><path
         d="m 337.016,41.246 -2.086,0.164 v 0.469 c 0.961,0 1.101,0.094 1.101,0.82 v 4.031 c 0,0.657 -0.164,0.657 -1.172,0.657 v 0.468 c 0.469,-0.023 1.289,-0.046 1.641,-0.046 0.539,0 1.055,0.023 1.57,0.046 v -0.468 c -1.008,0 -1.054,-0.071 -1.054,-0.657 z m 0.046,-2.601 c 0,-0.469 -0.351,-0.797 -0.773,-0.797 -0.469,0 -0.797,0.398 -0.797,0.797 0,0.398 0.328,0.796 0.797,0.796 0.422,0 0.773,-0.328 0.773,-0.796 z"
         style="fill:#000000;fill-opacity:1;fill-rule:nonzero;stroke:none"
         id="path204" /><path
         d="m 345.551,44.645 c 0,-1.899 -1.477,-3.493 -3.281,-3.493 -1.875,0 -3.329,1.641 -3.329,3.493 0,1.945 1.547,3.375 3.305,3.375 1.805,0 3.305,-1.477 3.305,-3.375 z m -3.281,3 c -0.657,0 -1.313,-0.305 -1.711,-1.008 -0.375,-0.657 -0.375,-1.571 -0.375,-2.11 0,-0.586 0,-1.382 0.351,-2.039 0.399,-0.679 1.102,-1.008 1.711,-1.008 0.656,0 1.289,0.329 1.688,0.985 0.398,0.633 0.398,1.5 0.398,2.062 0,0.539 0,1.36 -0.328,2.016 -0.352,0.68 -1.008,1.102 -1.734,1.102 z"
         style="fill:#000000;fill-opacity:1;fill-rule:nonzero;stroke:none"
         id="path206" /><path
         d="m 347.629,42.723 v 4.007 c 0,0.657 -0.164,0.657 -1.172,0.657 v 0.468 c 0.539,-0.023 1.289,-0.046 1.711,-0.046 0.375,0 1.148,0.023 1.664,0.046 v -0.468 c -1.008,0 -1.172,0 -1.172,-0.657 v -2.765 c 0,-1.547 1.078,-2.391 2.016,-2.391 0.961,0 1.125,0.797 1.125,1.664 v 3.492 c 0,0.657 -0.164,0.657 -1.172,0.657 v 0.468 c 0.516,-0.023 1.289,-0.046 1.687,-0.046 0.375,0 1.172,0.023 1.664,0.046 v -0.468 c -0.773,0 -1.148,0 -1.148,-0.446 v -2.859 c 0,-1.289 0,-1.734 -0.469,-2.273 -0.211,-0.258 -0.703,-0.563 -1.57,-0.563 -1.102,0 -1.805,0.633 -2.227,1.57 v -1.57 l -2.109,0.164 v 0.469 c 1.055,0 1.172,0.094 1.172,0.844 z"
         style="fill:#000000;fill-opacity:1;fill-rule:nonzero;stroke:none"
         id="path208" /><g
         id="g210"><path
           d="M 280.027,44.316 H 264.016 L 244.641,78.684"
           style="fill:none;stroke:#000000;stroke-width:0.749999;stroke-linecap:butt;stroke-linejoin:miter;stroke-miterlimit:4;stroke-dasharray:none;stroke-opacity:1"
           id="path212" /></g><g
         id="g214"
         transform="matrix(-0.56379,1,-1,-0.56379,0,0)"><path
           d="m -43.677,-219.297 c 10e-4,0.722 -0.584,1.305 -1.306,1.306 -0.719,0 -1.306,-0.584 -1.307,-1.306 10e-4,-0.719 0.587,-1.307 1.307,-1.307 0.722,-10e-4 1.307,0.587 1.306,1.307 z"
           style="fill:#000000;fill-opacity:1;fill-rule:evenodd;stroke:#000000;stroke-width:0.348438;stroke-linecap:butt;stroke-linejoin:miter;stroke-miterlimit:4;stroke-dasharray:none;stroke-opacity:1"
           id="path216" /></g><path
         d="m 401.059,142.234 v -3.867 c 0,-0.351 0,-0.539 0.328,-0.586 0.14,-0.023 0.586,-0.023 0.89,-0.023 1.336,0 3,0.07 3,2.226 0,1.032 -0.351,2.25 -2.554,2.25 z m 3.164,0.188 c 1.429,-0.352 2.601,-1.266 2.601,-2.438 0,-1.429 -1.711,-2.695 -3.89,-2.695 h -4.711 v 0.469 h 0.375 c 1.148,0 1.172,0.164 1.172,0.703 v 7.875 c 0,0.539 -0.024,0.703 -1.172,0.703 h -0.375 v 0.469 c 0.539,-0.047 1.617,-0.047 2.179,-0.047 0.586,0 1.664,0 2.203,0.047 v -0.469 h -0.375 c -1.148,0 -1.171,-0.164 -1.171,-0.703 v -3.774 h 1.711 c 0.234,0 0.867,0 1.406,0.516 0.562,0.516 0.562,0.984 0.562,1.992 0,0.961 0,1.571 0.61,2.133 0.609,0.539 1.429,0.633 1.875,0.633 1.172,0 1.429,-1.219 1.429,-1.641 0,-0.093 0,-0.257 -0.187,-0.257 -0.164,0 -0.164,0.14 -0.188,0.234 -0.093,1.078 -0.609,1.336 -0.984,1.336 -0.727,0 -0.844,-0.774 -1.055,-2.156 l -0.211,-1.196 c -0.257,-0.961 -0.984,-1.453 -1.804,-1.734 z"
         style="fill:#000000;fill-opacity:1;fill-rule:nonzero;stroke:none"
         id="path218" /><path
         d="m 410.371,143.734 c 0.094,-2.226 1.359,-2.601 1.875,-2.601 1.524,0 1.688,2.015 1.688,2.601 z m 0,0.328 h 4.172 c 0.328,0 0.375,0 0.375,-0.328 0,-1.476 -0.82,-2.929 -2.672,-2.929 -1.734,0 -3.117,1.547 -3.117,3.422 0,1.992 1.57,3.445 3.281,3.445 1.828,0 2.508,-1.664 2.508,-1.945 0,-0.141 -0.117,-0.188 -0.211,-0.188 -0.117,0 -0.164,0.094 -0.187,0.211 -0.516,1.547 -1.875,1.547 -2.016,1.547 -0.75,0 -1.336,-0.445 -1.688,-1.008 -0.445,-0.703 -0.445,-1.687 -0.445,-2.227 z"
         style="fill:#000000;fill-opacity:1;fill-rule:nonzero;stroke:none"
         id="path220" /><path
         d="m 417.105,144.25 c 0,-2.438 1.219,-3.07 2.016,-3.07 0.141,0 1.078,0.023 1.594,0.562 -0.61,0.047 -0.703,0.492 -0.703,0.68 0,0.398 0.281,0.68 0.679,0.68 0.399,0 0.704,-0.235 0.704,-0.704 0,-1.007 -1.149,-1.593 -2.297,-1.593 -1.875,0 -3.235,1.617 -3.235,3.468 0,1.922 1.477,3.399 3.211,3.399 1.992,0 2.485,-1.805 2.485,-1.945 0,-0.141 -0.164,-0.141 -0.211,-0.141 -0.118,0 -0.164,0.047 -0.188,0.141 -0.422,1.382 -1.406,1.57 -1.945,1.57 -0.797,0 -2.11,-0.633 -2.11,-3.047 z"
         style="fill:#000000;fill-opacity:1;fill-rule:nonzero;stroke:none"
         id="path222" /><path
         d="m 429.02,144.297 c 0,-1.899 -1.477,-3.492 -3.282,-3.492 -1.875,0 -3.328,1.64 -3.328,3.492 0,1.945 1.547,3.375 3.305,3.375 1.805,0 3.305,-1.477 3.305,-3.375 z m -3.282,3 c -0.656,0 -1.312,-0.305 -1.711,-1.008 -0.375,-0.656 -0.375,-1.57 -0.375,-2.109 0,-0.586 0,-1.383 0.352,-2.039 0.398,-0.68 1.101,-1.008 1.711,-1.008 0.656,0 1.289,0.328 1.687,0.984 0.399,0.633 0.399,1.5 0.399,2.063 0,0.539 0,1.359 -0.328,2.015 -0.352,0.68 -1.008,1.102 -1.735,1.102 z"
         style="fill:#000000;fill-opacity:1;fill-rule:nonzero;stroke:none"
         id="path224" /><path
         d="m 431.102,142.375 v 4.008 c 0,0.656 -0.164,0.656 -1.172,0.656 v 0.469 c 0.539,-0.024 1.289,-0.047 1.711,-0.047 0.375,0 1.148,0.023 1.664,0.047 v -0.469 c -1.008,0 -1.172,0 -1.172,-0.656 v -2.766 c 0,-1.547 1.078,-2.39 2.015,-2.39 0.961,0 1.125,0.796 1.125,1.664 v 3.492 c 0,0.656 -0.164,0.656 -1.171,0.656 v 0.469 c 0.515,-0.024 1.289,-0.047 1.687,-0.047 0.375,0 1.172,0.023 1.664,0.047 v -0.469 c -0.984,0 -1.148,0 -1.148,-0.656 v -2.766 c 0,-1.547 1.054,-2.39 2.015,-2.39 0.938,0 1.102,0.796 1.102,1.664 v 3.492 c 0,0.656 -0.164,0.656 -1.172,0.656 v 0.469 c 0.516,-0.024 1.289,-0.047 1.688,-0.047 0.398,0 1.171,0.023 1.687,0.047 v -0.469 c -0.773,0 -1.148,0 -1.172,-0.445 v -2.86 c 0,-1.289 0,-1.734 -0.469,-2.273 -0.211,-0.258 -0.703,-0.563 -1.57,-0.563 -1.242,0 -1.922,0.891 -2.156,1.477 -0.211,-1.313 -1.313,-1.477 -1.992,-1.477 -1.102,0 -1.805,0.633 -2.227,1.571 v -1.571 l -2.109,0.164 v 0.469 c 1.054,0 1.172,0.094 1.172,0.844 z"
         style="fill:#000000;fill-opacity:1;fill-rule:nonzero;stroke:none"
         id="path226" /><path
         d="m 444.492,141.883 v -0.985 l -2.156,0.164 v 0.469 c 1.055,0 1.172,0.094 1.172,0.75 v 6.985 c 0,0.679 -0.164,0.679 -1.172,0.679 v 0.469 c 0.516,-0.023 1.289,-0.047 1.664,-0.047 0.422,0 1.172,0.024 1.688,0.047 v -0.469 c -0.985,0 -1.149,0 -1.149,-0.679 v -2.649 c 0.07,0.258 0.703,1.055 1.828,1.055 1.781,0 3.328,-1.477 3.328,-3.399 0,-1.898 -1.429,-3.375 -3.117,-3.375 -1.172,0 -1.805,0.657 -2.086,0.985 z m 0.047,3.914 v -3.328 c 0.422,-0.774 1.149,-1.196 1.922,-1.196 1.101,0 1.992,1.313 1.992,3 0,1.805 -1.031,3.071 -2.133,3.071 -0.609,0 -1.172,-0.305 -1.57,-0.914 -0.211,-0.305 -0.211,-0.328 -0.211,-0.633 z"
         style="fill:#000000;fill-opacity:1;fill-rule:nonzero;stroke:none"
         id="path228" /><path
         d="m 452.727,142.539 v -1.641 l -2.086,0.164 v 0.469 c 1.054,0 1.171,0.094 1.171,0.844 v 4.008 c 0,0.656 -0.164,0.656 -1.171,0.656 v 0.469 c 0.586,-0.024 1.289,-0.047 1.711,-0.047 0.586,0 1.289,0 1.898,0.047 v -0.469 h -0.328 c -1.102,0 -1.125,-0.164 -1.125,-0.703 v -2.297 c 0,-1.477 0.633,-2.812 1.758,-2.812 0.093,0 0.14,0 0.164,0.023 -0.047,0 -0.352,0.188 -0.352,0.586 0,0.398 0.328,0.633 0.656,0.633 0.258,0 0.633,-0.188 0.633,-0.657 0,-0.468 -0.468,-0.914 -1.101,-0.914 -1.102,0 -1.641,1.008 -1.828,1.641 z"
         style="fill:#000000;fill-opacity:1;fill-rule:nonzero;stroke:none"
         id="path230" /><path
         d="m 457.734,143.734 c 0.094,-2.226 1.36,-2.601 1.875,-2.601 1.524,0 1.688,2.015 1.688,2.601 z m 0,0.328 h 4.172 c 0.328,0 0.375,0 0.375,-0.328 0,-1.476 -0.82,-2.929 -2.672,-2.929 -1.734,0 -3.117,1.547 -3.117,3.422 0,1.992 1.57,3.445 3.281,3.445 1.829,0 2.508,-1.664 2.508,-1.945 0,-0.141 -0.117,-0.188 -0.211,-0.188 -0.117,0 -0.164,0.094 -0.187,0.211 -0.516,1.547 -1.875,1.547 -2.016,1.547 -0.75,0 -1.336,-0.445 -1.687,-1.008 -0.446,-0.703 -0.446,-1.687 -0.446,-2.227 z"
         style="fill:#000000;fill-opacity:1;fill-rule:nonzero;stroke:none"
         id="path232" /><path
         d="m 465.828,144.602 c 0.328,0.07 1.547,0.304 1.547,1.382 0,0.75 -0.516,1.36 -1.687,1.36 -1.266,0 -1.805,-0.844 -2.086,-2.133 -0.047,-0.188 -0.047,-0.234 -0.211,-0.234 -0.188,0 -0.188,0.093 -0.188,0.351 v 1.992 c 0,0.258 0,0.352 0.164,0.352 0.071,0 0.094,-0.024 0.375,-0.305 0.024,-0.023 0.024,-0.047 0.305,-0.328 0.656,0.609 1.336,0.633 1.641,0.633 1.71,0 2.414,-1.008 2.414,-2.086 0,-0.774 -0.446,-1.242 -0.633,-1.406 -0.492,-0.492 -1.078,-0.61 -1.711,-0.727 -0.844,-0.164 -1.828,-0.351 -1.828,-1.219 0,-0.539 0.375,-1.148 1.664,-1.148 1.64,0 1.734,1.359 1.758,1.805 0,0.14 0.14,0.14 0.164,0.14 0.211,0 0.211,-0.07 0.211,-0.351 v -1.524 c 0,-0.234 0,-0.351 -0.165,-0.351 -0.07,0 -0.117,0 -0.304,0.187 -0.047,0.047 -0.188,0.188 -0.258,0.235 -0.562,-0.422 -1.172,-0.422 -1.406,-0.422 -1.828,0 -2.391,1.007 -2.391,1.851 0,0.516 0.235,0.938 0.633,1.266 0.492,0.375 0.914,0.469 1.992,0.68 z"
         style="fill:#000000;fill-opacity:1;fill-rule:nonzero;stroke:none"
         id="path234" /><path
         d="m 471.723,144.602 c 0.328,0.07 1.547,0.304 1.547,1.382 0,0.75 -0.516,1.36 -1.688,1.36 -1.266,0 -1.805,-0.844 -2.086,-2.133 -0.047,-0.188 -0.047,-0.234 -0.211,-0.234 -0.187,0 -0.187,0.093 -0.187,0.351 v 1.992 c 0,0.258 0,0.352 0.164,0.352 0.07,0 0.093,-0.024 0.375,-0.305 0.023,-0.023 0.023,-0.047 0.304,-0.328 0.657,0.609 1.336,0.633 1.641,0.633 1.711,0 2.414,-1.008 2.414,-2.086 0,-0.774 -0.445,-1.242 -0.633,-1.406 -0.492,-0.492 -1.078,-0.61 -1.711,-0.727 -0.843,-0.164 -1.828,-0.351 -1.828,-1.219 0,-0.539 0.375,-1.148 1.664,-1.148 1.641,0 1.735,1.359 1.758,1.805 0,0.14 0.141,0.14 0.164,0.14 0.211,0 0.211,-0.07 0.211,-0.351 v -1.524 c 0,-0.234 0,-0.351 -0.164,-0.351 -0.07,0 -0.117,0 -0.305,0.187 -0.047,0.047 -0.187,0.188 -0.257,0.235 -0.563,-0.422 -1.172,-0.422 -1.407,-0.422 -1.828,0 -2.39,1.007 -2.39,1.851 0,0.516 0.234,0.938 0.632,1.266 0.493,0.375 0.915,0.469 1.993,0.68 z"
         style="fill:#000000;fill-opacity:1;fill-rule:nonzero;stroke:none"
         id="path236" /><path
         d="m 477.148,140.898 -2.086,0.164 v 0.469 c 0.961,0 1.102,0.094 1.102,0.821 v 4.031 c 0,0.656 -0.164,0.656 -1.172,0.656 v 0.469 c 0.469,-0.024 1.289,-0.047 1.641,-0.047 0.539,0 1.055,0.023 1.57,0.047 v -0.469 c -1.008,0 -1.055,-0.07 -1.055,-0.656 z m 0.047,-2.601 c 0,-0.469 -0.351,-0.797 -0.773,-0.797 -0.469,0 -0.797,0.398 -0.797,0.797 0,0.398 0.328,0.797 0.797,0.797 0.422,0 0.773,-0.328 0.773,-0.797 z"
         style="fill:#000000;fill-opacity:1;fill-rule:nonzero;stroke:none"
         id="path238" /><path
         d="m 485.684,144.297 c 0,-1.899 -1.477,-3.492 -3.282,-3.492 -1.875,0 -3.328,1.64 -3.328,3.492 0,1.945 1.547,3.375 3.305,3.375 1.805,0 3.305,-1.477 3.305,-3.375 z m -3.282,3 c -0.656,0 -1.312,-0.305 -1.711,-1.008 -0.375,-0.656 -0.375,-1.57 -0.375,-2.109 0,-0.586 0,-1.383 0.352,-2.039 0.398,-0.68 1.102,-1.008 1.711,-1.008 0.656,0 1.289,0.328 1.687,0.984 0.399,0.633 0.399,1.5 0.399,2.063 0,0.539 0,1.359 -0.328,2.015 -0.352,0.68 -1.008,1.102 -1.735,1.102 z"
         style="fill:#000000;fill-opacity:1;fill-rule:nonzero;stroke:none"
         id="path240" /><path
         d="m 487.766,142.375 v 4.008 c 0,0.656 -0.164,0.656 -1.172,0.656 v 0.469 c 0.539,-0.024 1.289,-0.047 1.711,-0.047 0.375,0 1.148,0.023 1.664,0.047 v -0.469 c -1.008,0 -1.172,0 -1.172,-0.656 v -2.766 c 0,-1.547 1.078,-2.39 2.015,-2.39 0.961,0 1.126,0.796 1.126,1.664 v 3.492 c 0,0.656 -0.165,0.656 -1.172,0.656 v 0.469 c 0.515,-0.024 1.289,-0.047 1.687,-0.047 0.375,0 1.172,0.023 1.664,0.047 v -0.469 c -0.773,0 -1.148,0 -1.148,-0.445 v -2.86 c 0,-1.289 0,-1.734 -0.469,-2.273 -0.211,-0.258 -0.703,-0.563 -1.57,-0.563 -1.102,0 -1.805,0.633 -2.227,1.571 v -1.571 l -2.109,0.164 v 0.469 c 1.054,0 1.172,0.094 1.172,0.844 z"
         style="fill:#000000;fill-opacity:1;fill-rule:nonzero;stroke:none"
         id="path242" /><g
         id="g244"><path
           d="M 395.727,143.375 H 379.719 L 359.766,100.234"
           style="fill:none;stroke:#000000;stroke-width:0.749999;stroke-linecap:butt;stroke-linejoin:miter;stroke-miterlimit:4;stroke-dasharray:none;stroke-opacity:1"
           id="path246" /></g><g
         id="g248"
         transform="matrix(-0.462467,-1,1,-0.462467,0,0)"><path
           d="m -218.308,258.192 c 0.001,0.751 -0.609,1.359 -1.359,1.36 -0.753,-0.001 -1.362,-0.61 -1.363,-1.361 0.001,-0.753 0.611,-1.362 1.361,-1.363 0.753,0.001 1.362,0.611 1.361,1.364 z"
           style="fill:#000000;fill-opacity:1;fill-rule:evenodd;stroke:#000000;stroke-width:0.363055;stroke-linecap:butt;stroke-linejoin:miter;stroke-miterlimit:4;stroke-dasharray:none;stroke-opacity:1"
           id="path250" /></g><g
         id="g252"><path
           d="M 395.727,143.395 H 379.719 L 359.766,183.66"
           style="fill:none;stroke:#000000;stroke-width:0.749999;stroke-linecap:butt;stroke-linejoin:miter;stroke-miterlimit:4;stroke-dasharray:none;stroke-opacity:1"
           id="path254" /></g><g
         id="g256"
         transform="matrix(-0.495455,1,-1,-0.495455,0,0)"><path
           d="m 5.662,-361.919 c 0,0.742 -0.601,1.341 -1.343,1.342 -0.742,0 -1.344,-0.6 -1.345,-1.342 0,-0.742 0.603,-1.346 1.345,-1.346 0.739,10e-4 1.343,0.604 1.343,1.346 z"
           style="fill:#000000;fill-opacity:1;fill-rule:evenodd;stroke:#000000;stroke-width:0.35842;stroke-linecap:butt;stroke-linejoin:miter;stroke-miterlimit:4;stroke-dasharray:none;stroke-opacity:1"
           id="path258" /></g><g
         id="g260"><path
           d="m 101.922,109.898 h 16.008 l 19.953,19.95"
           style="fill:none;stroke:#000000;stroke-width:0.749999;stroke-linecap:butt;stroke-linejoin:miter;stroke-miterlimit:4;stroke-dasharray:none;stroke-opacity:1"
           id="path262" /></g><g
         id="g264"
         transform="matrix(1,1,-1,1,0,0)"><path
           d="m 134.904,-4.018 c 0,0.586 -0.476,1.063 -1.06,1.061 -0.586,0 -1.061,-0.475 -1.061,-1.061 -0.002,-0.584 0.475,-1.06 1.061,-1.06 0.586,0 1.06,0.474 1.06,1.06 z"
           style="fill:#000000;fill-opacity:1;fill-rule:evenodd;stroke:#000000;stroke-width:0.282842;stroke-linecap:butt;stroke-linejoin:miter;stroke-miterlimit:4;stroke-dasharray:none;stroke-opacity:1"
           id="path266" /></g><g
         id="g268"><path
           d="m 39.254,202.539 75.078,-23.422"
           style="fill:none;stroke:#000080;stroke-width:2.99999;stroke-linecap:butt;stroke-linejoin:miter;stroke-miterlimit:4;stroke-dasharray:none;stroke-opacity:1"
           id="path270" /></g><g
         id="g272"
         transform="matrix(-1,0.311935,-0.311935,-1,0,0)"><path
           d="m -41.818,-195.736 5.725,-5.73 -20.045,5.728 20.045,5.729 z"
           style="fill:#000080;fill-opacity:1;fill-rule:evenodd;stroke:#000080;stroke-width:1.52741;stroke-linecap:butt;stroke-linejoin:miter;stroke-miterlimit:4;stroke-dasharray:none;stroke-opacity:1"
           id="path274" /></g><path
         d="m 31.598,212.082 c 0,-0.539 0.023,-0.703 1.172,-0.703 h 0.375 v -0.469 c -0.54,0.047 -1.641,0.047 -2.204,0.047 -0.562,0 -1.687,0 -2.203,-0.047 v 0.469 h 0.352 c 1.148,0 1.172,0.164 1.172,0.703 v 3.492 h -4.453 v -3.492 c 0,-0.539 0.023,-0.703 1.171,-0.703 h 0.352 v -0.469 c -0.516,0.047 -1.617,0.047 -2.203,0.047 -0.563,0 -1.688,0 -2.203,-0.047 v 0.469 h 0.351 c 1.149,0 1.196,0.164 1.196,0.703 v 7.875 c 0,0.539 -0.047,0.703 -1.196,0.703 h -0.351 v 0.469 c 0.515,-0.047 1.64,-0.047 2.203,-0.047 0.562,0 1.687,0 2.203,0.047 V 220.66 H 26.98 c -1.148,0 -1.171,-0.164 -1.171,-0.703 v -3.914 h 4.453 v 3.914 c 0,0.539 -0.024,0.703 -1.172,0.703 h -0.352 v 0.469 c 0.516,-0.047 1.617,-0.047 2.18,-0.047 0.586,0 1.687,0 2.227,0.047 V 220.66 H 32.77 c -1.149,0 -1.172,-0.164 -1.172,-0.703 z"
         style="fill:#000000;fill-opacity:1;fill-rule:nonzero;stroke:none"
         id="path276" /><path
         d="m 39.852,216.113 c 0.375,-0.961 1.148,-0.961 1.382,-0.961 v -0.468 c -0.351,0.023 -0.773,0.046 -1.125,0.046 -0.257,0 -0.961,-0.023 -1.289,-0.046 v 0.468 c 0.469,0 0.703,0.258 0.703,0.633 0,0.164 -0.023,0.188 -0.093,0.375 l -1.524,3.656 -1.64,-4.007 c -0.071,-0.164 -0.094,-0.211 -0.094,-0.282 0,-0.375 0.539,-0.375 0.844,-0.375 v -0.468 c -0.399,0.023 -1.383,0.046 -1.641,0.046 -0.398,0 -1.008,-0.023 -1.453,-0.046 v 0.468 c 0.726,0 1.008,0 1.219,0.516 l 2.25,5.461 c -0.094,0.187 -0.305,0.68 -0.375,0.891 -0.328,0.82 -0.75,1.851 -1.711,1.851 -0.071,0 -0.422,0 -0.703,-0.281 0.468,-0.047 0.586,-0.375 0.586,-0.633 0,-0.375 -0.282,-0.609 -0.633,-0.609 -0.305,0 -0.633,0.187 -0.633,0.632 0,0.68 0.633,1.219 1.383,1.219 0.937,0 1.547,-0.867 1.898,-1.711 z"
         style="fill:#000000;fill-opacity:1;fill-rule:nonzero;stroke:none"
         id="path278" /><path
         d="m 44.105,215.504 v -0.984 l -2.156,0.164 v 0.468 c 1.055,0 1.172,0.094 1.172,0.75 v 6.985 c 0,0.679 -0.164,0.679 -1.172,0.679 v 0.469 c 0.516,-0.023 1.289,-0.047 1.664,-0.047 0.422,0 1.172,0.024 1.688,0.047 v -0.469 c -0.985,0 -1.149,0 -1.149,-0.679 v -2.649 c 0.071,0.258 0.703,1.055 1.828,1.055 1.782,0 3.329,-1.477 3.329,-3.398 0,-1.899 -1.43,-3.375 -3.118,-3.375 -1.171,0 -1.804,0.656 -2.086,0.984 z m 0.047,3.914 v -3.328 c 0.422,-0.774 1.149,-1.195 1.922,-1.195 1.102,0 1.992,1.312 1.992,3 0,1.804 -1.031,3.07 -2.132,3.07 -0.61,0 -1.172,-0.305 -1.571,-0.914 -0.211,-0.305 -0.211,-0.328 -0.211,-0.633 z"
         style="fill:#000000;fill-opacity:1;fill-rule:nonzero;stroke:none"
         id="path280" /><path
         d="m 51.914,217.355 c 0.094,-2.226 1.359,-2.601 1.875,-2.601 1.523,0 1.688,2.016 1.688,2.601 z m 0,0.329 h 4.172 c 0.328,0 0.375,0 0.375,-0.329 0,-1.476 -0.82,-2.929 -2.672,-2.929 -1.734,0 -3.117,1.547 -3.117,3.422 0,1.992 1.57,3.445 3.281,3.445 1.828,0 2.508,-1.664 2.508,-1.945 0,-0.141 -0.117,-0.188 -0.211,-0.188 -0.117,0 -0.164,0.094 -0.188,0.211 -0.515,1.547 -1.874,1.547 -2.015,1.547 -0.75,0 -1.336,-0.445 -1.688,-1.008 -0.445,-0.703 -0.445,-1.687 -0.445,-2.226 z"
         style="fill:#000000;fill-opacity:1;fill-rule:nonzero;stroke:none"
         id="path282" /><path
         d="m 59.398,216.16 v -1.64 l -2.086,0.164 v 0.468 c 1.055,0 1.172,0.094 1.172,0.844 v 4.008 c 0,0.656 -0.164,0.656 -1.172,0.656 v 0.469 c 0.586,-0.024 1.29,-0.047 1.711,-0.047 0.586,0 1.289,0 1.899,0.047 v -0.469 h -0.328 c -1.102,0 -1.125,-0.164 -1.125,-0.703 v -2.297 c 0,-1.476 0.633,-2.812 1.758,-2.812 0.093,0 0.14,0 0.164,0.023 -0.047,0 -0.352,0.188 -0.352,0.586 0,0.398 0.328,0.633 0.656,0.633 0.258,0 0.633,-0.188 0.633,-0.656 0,-0.469 -0.469,-0.914 -1.101,-0.914 -1.102,0 -1.641,1.007 -1.829,1.64 z"
         style="fill:#000000;fill-opacity:1;fill-rule:nonzero;stroke:none"
         id="path284" /><path
         d="m 65.859,218.223 c 0.329,0.07 1.547,0.304 1.547,1.382 0,0.75 -0.515,1.36 -1.687,1.36 -1.266,0 -1.805,-0.844 -2.086,-2.133 -0.047,-0.187 -0.047,-0.234 -0.211,-0.234 -0.188,0 -0.188,0.093 -0.188,0.351 v 1.992 c 0,0.258 0,0.352 0.164,0.352 0.071,0 0.094,-0.023 0.375,-0.305 0.024,-0.023 0.024,-0.047 0.305,-0.328 0.656,0.61 1.336,0.633 1.641,0.633 1.711,0 2.414,-1.008 2.414,-2.086 0,-0.773 -0.445,-1.242 -0.633,-1.406 -0.492,-0.492 -1.078,-0.61 -1.711,-0.727 -0.844,-0.164 -1.828,-0.351 -1.828,-1.219 0,-0.539 0.375,-1.148 1.664,-1.148 1.641,0 1.734,1.359 1.758,1.805 0,0.14 0.14,0.14 0.164,0.14 0.211,0 0.211,-0.07 0.211,-0.351 v -1.524 c 0,-0.234 0,-0.351 -0.164,-0.351 -0.071,0 -0.117,0 -0.305,0.187 -0.047,0.047 -0.187,0.188 -0.258,0.235 -0.562,-0.422 -1.172,-0.422 -1.406,-0.422 -1.828,0 -2.391,1.008 -2.391,1.851 0,0.516 0.235,0.938 0.633,1.266 0.492,0.375 0.914,0.469 1.992,0.68 z"
         style="fill:#000000;fill-opacity:1;fill-rule:nonzero;stroke:none"
         id="path286" /><path
         d="m 75.668,217.918 c 0,-1.898 -1.477,-3.492 -3.281,-3.492 -1.875,0 -3.328,1.64 -3.328,3.492 0,1.945 1.546,3.375 3.304,3.375 1.805,0 3.305,-1.477 3.305,-3.375 z m -3.281,3 c -0.657,0 -1.313,-0.305 -1.711,-1.008 -0.375,-0.656 -0.375,-1.57 -0.375,-2.109 0,-0.586 0,-1.383 0.351,-2.039 0.399,-0.68 1.102,-1.008 1.711,-1.008 0.657,0 1.289,0.328 1.688,0.984 0.398,0.633 0.398,1.5 0.398,2.063 0,0.539 0,1.359 -0.328,2.015 -0.351,0.68 -1.008,1.102 -1.734,1.102 z"
         style="fill:#000000;fill-opacity:1;fill-rule:nonzero;stroke:none"
         id="path288" /><path
         d="m 77.75,215.996 v 4.008 c 0,0.656 -0.164,0.656 -1.172,0.656 v 0.469 c 0.539,-0.024 1.289,-0.047 1.711,-0.047 0.375,0 1.149,0.023 1.664,0.047 v -0.469 c -1.008,0 -1.172,0 -1.172,-0.656 v -2.766 c 0,-1.547 1.078,-2.39 2.016,-2.39 0.961,0 1.125,0.797 1.125,1.664 v 3.492 c 0,0.656 -0.164,0.656 -1.172,0.656 v 0.469 c 0.516,-0.024 1.289,-0.047 1.688,-0.047 0.374,0 1.171,0.023 1.664,0.047 v -0.469 c -0.774,0 -1.149,0 -1.149,-0.445 v -2.86 c 0,-1.289 0,-1.734 -0.469,-2.273 -0.211,-0.258 -0.703,-0.562 -1.57,-0.562 -1.102,0 -1.805,0.632 -2.226,1.57 v -1.57 l -2.11,0.164 v 0.468 c 1.055,0 1.172,0.094 1.172,0.844 z"
         style="fill:#000000;fill-opacity:1;fill-rule:nonzero;stroke:none"
         id="path290" /><path
         d="m 87.062,214.52 -2.085,0.164 v 0.468 c 0.961,0 1.101,0.094 1.101,0.821 v 4.031 c 0,0.656 -0.164,0.656 -1.172,0.656 v 0.469 c 0.469,-0.024 1.289,-0.047 1.641,-0.047 0.539,0 1.055,0.023 1.57,0.047 v -0.469 c -1.008,0 -1.055,-0.07 -1.055,-0.656 z m 0.047,-2.602 c 0,-0.469 -0.351,-0.797 -0.773,-0.797 -0.469,0 -0.797,0.399 -0.797,0.797 0,0.398 0.328,0.797 0.797,0.797 0.422,0 0.773,-0.328 0.773,-0.797 z"
         style="fill:#000000;fill-opacity:1;fill-rule:nonzero;stroke:none"
         id="path292" /><path
         d="m 90.32,217.871 c 0,-2.437 1.219,-3.07 2.016,-3.07 0.141,0 1.078,0.023 1.594,0.562 -0.61,0.047 -0.703,0.492 -0.703,0.68 0,0.398 0.281,0.68 0.679,0.68 0.399,0 0.703,-0.235 0.703,-0.703 0,-1.008 -1.148,-1.594 -2.297,-1.594 -1.874,0 -3.234,1.617 -3.234,3.469 0,1.921 1.477,3.398 3.211,3.398 1.992,0 2.484,-1.805 2.484,-1.945 0,-0.141 -0.164,-0.141 -0.211,-0.141 -0.117,0 -0.164,0.047 -0.187,0.141 -0.422,1.382 -1.406,1.57 -1.945,1.57 -0.797,0 -2.11,-0.633 -2.11,-3.047 z"
         style="fill:#000000;fill-opacity:1;fill-rule:nonzero;stroke:none"
         id="path294" /><path
         d="m 105.898,215.152 v 4.852 c 0,0.656 -0.164,0.656 -1.148,0.656 v 0.469 c 0.492,-0.024 1.266,-0.047 1.641,-0.047 0.375,0 1.125,0.023 1.664,0.047 v -0.469 c -1.008,0 -1.172,0 -1.172,-0.656 v -9.258 l -0.539,0.094 c -0.047,0 -0.071,-0.024 -0.117,-0.047 -0.493,-0.211 -1.102,-0.211 -1.266,-0.211 -1.57,0 -3.188,0.844 -3.188,2.391 v 1.711 h -1.195 v 0.468 h 1.195 v 4.852 c 0,0.656 -0.164,0.656 -1.171,0.656 v 0.469 c 0.492,-0.024 1.289,-0.047 1.664,-0.047 0.375,0 1.101,0.023 1.664,0.047 v -0.469 c -1.008,0 -1.172,0 -1.172,-0.656 v -4.852 z m 0,-0.468 h -3.187 v -1.688 c 0,-1.383 1.125,-2.086 2.25,-2.086 0.117,0 0.516,0 0.937,0.141 -0.117,0.07 -0.375,0.211 -0.375,0.609 0,0.258 0.141,0.492 0.375,0.563 z"
         style="fill:#000000;fill-opacity:1;fill-rule:nonzero;stroke:none"
         id="path296" /><path
         d="m 115.516,217.918 c 0,-1.898 -1.477,-3.492 -3.282,-3.492 -1.875,0 -3.328,1.64 -3.328,3.492 0,1.945 1.547,3.375 3.305,3.375 1.805,0 3.305,-1.477 3.305,-3.375 z m -3.282,3 c -0.656,0 -1.312,-0.305 -1.711,-1.008 -0.375,-0.656 -0.375,-1.57 -0.375,-2.109 0,-0.586 0,-1.383 0.352,-2.039 0.398,-0.68 1.102,-1.008 1.711,-1.008 0.656,0 1.289,0.328 1.687,0.984 0.399,0.633 0.399,1.5 0.399,2.063 0,0.539 0,1.359 -0.328,2.015 -0.352,0.68 -1.008,1.102 -1.735,1.102 z"
         style="fill:#000000;fill-opacity:1;fill-rule:nonzero;stroke:none"
         id="path298" /><path
         d="m 124.797,216.113 c 0.258,-0.75 0.726,-0.961 1.265,-0.961 v -0.468 c -0.351,0.023 -0.773,0.046 -1.101,0.046 -0.445,0 -1.102,-0.023 -1.383,-0.046 v 0.468 c 0.539,0 0.867,0.282 0.867,0.703 0,0.094 0,0.141 -0.093,0.329 l -1.36,3.82 -1.476,-4.172 c -0.047,-0.187 -0.071,-0.211 -0.071,-0.281 0,-0.399 0.586,-0.399 0.891,-0.399 v -0.468 c -0.445,0.023 -1.195,0.046 -1.57,0.046 -0.446,0 -0.868,-0.023 -1.313,-0.046 v 0.468 c 0.539,0 0.774,0.024 0.938,0.211 0.07,0.094 0.234,0.539 0.328,0.821 l -1.266,3.632 -1.43,-3.984 c -0.07,-0.187 -0.07,-0.211 -0.07,-0.281 0,-0.399 0.586,-0.399 0.867,-0.399 v -0.468 c -0.445,0.023 -1.289,0.046 -1.617,0.046 -0.07,0 -0.867,-0.023 -1.406,-0.046 v 0.468 c 0.75,0 0.937,0.047 1.125,0.516 l 1.875,5.297 c 0.07,0.211 0.117,0.328 0.305,0.328 0.21,0 0.234,-0.094 0.304,-0.305 l 1.524,-4.218 1.523,4.242 c 0.047,0.164 0.094,0.281 0.305,0.281 0.187,0 0.234,-0.141 0.281,-0.281 z"
         style="fill:#000000;fill-opacity:1;fill-rule:nonzero;stroke:none"
         id="path300" /><path
         d="m 346.801,209.414 c 0,3.094 2.414,5.438 5.203,5.438 2.437,0 3.891,-2.086 3.891,-3.821 0,-0.14 0,-0.258 -0.188,-0.258 -0.164,0 -0.164,0.094 -0.187,0.258 -0.118,2.133 -1.711,3.352 -3.352,3.352 -0.914,0 -3.844,-0.492 -3.844,-4.969 0,-4.453 2.93,-4.969 3.844,-4.969 1.617,0 2.953,1.36 3.258,3.539 0.023,0.211 0.023,0.258 0.234,0.258 0.235,0 0.235,-0.047 0.235,-0.351 v -3.539 c 0,-0.258 0,-0.375 -0.165,-0.375 -0.046,0 -0.117,0 -0.234,0.187 l -0.75,1.102 c -0.539,-0.539 -1.312,-1.289 -2.742,-1.289 -2.813,0 -5.203,2.39 -5.203,5.437 z"
         style="fill:#000000;fill-opacity:1;fill-rule:nonzero;stroke:none"
         id="path302" /><path
         d="m 363.781,211.312 c 0,-1.898 -1.476,-3.492 -3.281,-3.492 -1.875,0 -3.328,1.641 -3.328,3.492 0,1.946 1.547,3.376 3.305,3.376 1.804,0 3.304,-1.477 3.304,-3.376 z m -3.281,3 c -0.656,0 -1.312,-0.304 -1.711,-1.007 -0.375,-0.657 -0.375,-1.571 -0.375,-2.11 0,-0.586 0,-1.383 0.352,-2.039 0.398,-0.679 1.101,-1.008 1.711,-1.008 0.656,0 1.289,0.329 1.687,0.985 0.398,0.633 0.398,1.5 0.398,2.062 0,0.539 0,1.36 -0.328,2.016 -0.351,0.68 -1.007,1.101 -1.734,1.101 z"
         style="fill:#000000;fill-opacity:1;fill-rule:nonzero;stroke:none"
         id="path304" /><path
         d="m 365.863,209.391 v 4.007 c 0,0.657 -0.164,0.657 -1.172,0.657 v 0.468 c 0.539,-0.023 1.289,-0.046 1.711,-0.046 0.375,0 1.149,0.023 1.664,0.046 v -0.468 c -1.007,0 -1.171,0 -1.171,-0.657 v -2.765 c 0,-1.547 1.078,-2.391 2.015,-2.391 0.961,0 1.125,0.797 1.125,1.664 v 3.492 c 0,0.657 -0.164,0.657 -1.172,0.657 v 0.468 c 0.516,-0.023 1.289,-0.046 1.688,-0.046 0.375,0 1.172,0.023 1.664,0.046 v -0.468 c -0.774,0 -1.149,0 -1.149,-0.446 v -2.859 c 0,-1.289 0,-1.734 -0.468,-2.273 -0.211,-0.258 -0.703,-0.563 -1.571,-0.563 -1.101,0 -1.804,0.633 -2.226,1.57 v -1.57 l -2.11,0.164 v 0.469 c 1.055,0 1.172,0.094 1.172,0.844 z"
         style="fill:#000000;fill-opacity:1;fill-rule:nonzero;stroke:none"
         id="path306" /><path
         d="m 374.684,208.547 h 2.156 v -0.469 h -2.156 v -2.742 h -0.375 c 0,1.219 -0.446,2.812 -1.922,2.883 v 0.328 h 1.265 v 4.125 c 0,1.828 1.407,2.016 1.946,2.016 1.054,0 1.476,-1.055 1.476,-2.016 v -0.844 h -0.375 v 0.82 c 0,1.102 -0.445,1.664 -1.008,1.664 -1.007,0 -1.007,-1.359 -1.007,-1.617 z"
         style="fill:#000000;fill-opacity:1;fill-rule:nonzero;stroke:none"
         id="path308" /><path
         d="m 380.566,207.914 -2.086,0.164 v 0.469 c 0.961,0 1.102,0.094 1.102,0.82 v 4.031 c 0,0.657 -0.164,0.657 -1.172,0.657 v 0.468 c 0.469,-0.023 1.289,-0.046 1.641,-0.046 0.539,0 1.054,0.023 1.57,0.046 v -0.468 c -1.008,0 -1.055,-0.071 -1.055,-0.657 z m 0.047,-2.602 c 0,-0.468 -0.351,-0.796 -0.773,-0.796 -0.469,0 -0.797,0.398 -0.797,0.796 0,0.399 0.328,0.797 0.797,0.797 0.422,0 0.773,-0.328 0.773,-0.797 z"
         style="fill:#000000;fill-opacity:1;fill-rule:nonzero;stroke:none"
         id="path310" /><path
         d="m 383.711,209.391 v 4.007 c 0,0.657 -0.164,0.657 -1.172,0.657 v 0.468 c 0.539,-0.023 1.289,-0.046 1.711,-0.046 0.375,0 1.148,0.023 1.664,0.046 v -0.468 c -1.008,0 -1.172,0 -1.172,-0.657 v -2.765 c 0,-1.547 1.078,-2.391 2.016,-2.391 0.961,0 1.125,0.797 1.125,1.664 v 3.492 c 0,0.657 -0.164,0.657 -1.172,0.657 v 0.468 c 0.516,-0.023 1.289,-0.046 1.687,-0.046 0.375,0 1.172,0.023 1.664,0.046 v -0.468 c -0.773,0 -1.148,0 -1.148,-0.446 v -2.859 c 0,-1.289 0,-1.734 -0.469,-2.273 -0.211,-0.258 -0.703,-0.563 -1.57,-0.563 -1.102,0 -1.805,0.633 -2.227,1.57 v -1.57 l -2.109,0.164 v 0.469 c 1.055,0 1.172,0.094 1.172,0.844 z"
         style="fill:#000000;fill-opacity:1;fill-rule:nonzero;stroke:none"
         id="path312" /><path
         d="m 395.789,213.352 v 1.336 l 2.156,-0.165 v -0.468 c -1.031,0 -1.148,-0.094 -1.148,-0.844 v -5.297 l -2.203,0.164 v 0.469 c 1.031,0 1.172,0.094 1.172,0.844 v 2.648 c 0,1.313 -0.727,2.32 -1.828,2.32 -1.243,0 -1.313,-0.703 -1.313,-1.476 v -4.969 l -2.203,0.164 v 0.469 c 1.172,0 1.172,0.047 1.172,1.359 v 2.25 c 0,1.172 0,2.532 2.273,2.532 0.844,0 1.5,-0.422 1.922,-1.336 z"
         style="fill:#000000;fill-opacity:1;fill-rule:nonzero;stroke:none"
         id="path314" /><path
         d="m 404.094,213.352 v 1.336 l 2.156,-0.165 v -0.468 c -1.031,0 -1.148,-0.094 -1.148,-0.844 v -5.297 l -2.204,0.164 v 0.469 c 1.032,0 1.172,0.094 1.172,0.844 v 2.648 c 0,1.313 -0.726,2.32 -1.828,2.32 -1.242,0 -1.312,-0.703 -1.312,-1.476 v -4.969 l -2.203,0.164 v 0.469 c 1.171,0 1.171,0.047 1.171,1.359 v 2.25 c 0,1.172 0,2.532 2.274,2.532 0.844,0 1.5,-0.422 1.922,-1.336 z"
         style="fill:#000000;fill-opacity:1;fill-rule:nonzero;stroke:none"
         id="path316" /><path
         d="m 408.199,209.391 v 4.007 c 0,0.657 -0.164,0.657 -1.172,0.657 v 0.468 c 0.539,-0.023 1.289,-0.046 1.711,-0.046 0.375,0 1.149,0.023 1.664,0.046 v -0.468 c -1.007,0 -1.172,0 -1.172,-0.657 v -2.765 c 0,-1.547 1.079,-2.391 2.016,-2.391 0.961,0 1.125,0.797 1.125,1.664 v 3.492 c 0,0.657 -0.164,0.657 -1.172,0.657 v 0.468 c 0.516,-0.023 1.289,-0.046 1.688,-0.046 0.375,0 1.172,0.023 1.664,0.046 v -0.468 c -0.985,0 -1.149,0 -1.149,-0.657 v -2.765 c 0,-1.547 1.055,-2.391 2.016,-2.391 0.937,0 1.102,0.797 1.102,1.664 v 3.492 c 0,0.657 -0.165,0.657 -1.172,0.657 v 0.468 c 0.515,-0.023 1.289,-0.046 1.687,-0.046 0.399,0 1.172,0.023 1.688,0.046 v -0.468 c -0.774,0 -1.149,0 -1.172,-0.446 v -2.859 c 0,-1.289 0,-1.734 -0.469,-2.273 -0.211,-0.258 -0.703,-0.563 -1.57,-0.563 -1.242,0 -1.922,0.891 -2.157,1.477 -0.21,-1.313 -1.312,-1.477 -1.992,-1.477 -1.101,0 -1.804,0.633 -2.226,1.57 v -1.57 l -2.11,0.164 v 0.469 c 1.055,0 1.172,0.094 1.172,0.844 z"
         style="fill:#000000;fill-opacity:1;fill-rule:nonzero;stroke:none"
         id="path318" /><path
         d="m 426.582,208.875 v -4.734 l -2.156,0.164 v 0.468 c 1.054,0 1.172,0.094 1.172,0.844 v 8.906 h 0.375 c 0,-0.023 0.117,-0.234 0.539,-0.937 0.211,0.352 0.843,1.102 1.945,1.102 1.781,0 3.328,-1.477 3.328,-3.399 0,-1.898 -1.453,-3.375 -3.164,-3.375 -1.172,0 -1.805,0.703 -2.039,0.961 z m 0.047,3.937 v -3.07 c 0,-0.281 0,-0.304 0.164,-0.539 0.586,-0.844 1.406,-0.961 1.758,-0.961 0.679,0 1.219,0.399 1.57,0.961 0.399,0.609 0.422,1.453 0.422,2.086 0,0.539 -0.023,1.43 -0.445,2.109 -0.328,0.469 -0.891,0.961 -1.688,0.961 -0.68,0 -1.219,-0.351 -1.57,-0.914 -0.211,-0.304 -0.211,-0.351 -0.211,-0.633 z"
         style="fill:#000000;fill-opacity:1;fill-rule:nonzero;stroke:none"
         id="path320" /><path
         d="m 434.812,209.555 v -1.641 l -2.085,0.164 v 0.469 c 1.054,0 1.171,0.094 1.171,0.844 v 4.007 c 0,0.657 -0.164,0.657 -1.171,0.657 v 0.468 c 0.585,-0.023 1.289,-0.046 1.711,-0.046 0.585,0 1.289,0 1.898,0.046 v -0.468 h -0.328 c -1.102,0 -1.125,-0.164 -1.125,-0.703 v -2.297 c 0,-1.477 0.633,-2.813 1.758,-2.813 0.093,0 0.14,0 0.164,0.024 -0.047,0 -0.352,0.187 -0.352,0.586 0,0.398 0.328,0.632 0.656,0.632 0.258,0 0.633,-0.187 0.633,-0.656 0,-0.469 -0.469,-0.914 -1.101,-0.914 -1.102,0 -1.641,1.008 -1.829,1.641 z"
         style="fill:#000000;fill-opacity:1;fill-rule:nonzero;stroke:none"
         id="path322" /><path
         d="m 439.824,210.75 c 0.094,-2.227 1.36,-2.602 1.875,-2.602 1.524,0 1.688,2.016 1.688,2.602 z m 0,0.328 h 4.172 c 0.328,0 0.375,0 0.375,-0.328 0,-1.477 -0.82,-2.93 -2.672,-2.93 -1.734,0 -3.117,1.547 -3.117,3.422 0,1.992 1.57,3.446 3.281,3.446 1.828,0 2.508,-1.665 2.508,-1.946 0,-0.14 -0.117,-0.187 -0.211,-0.187 -0.117,0 -0.164,0.093 -0.187,0.211 -0.516,1.546 -1.875,1.546 -2.016,1.546 -0.75,0 -1.336,-0.445 -1.687,-1.007 -0.446,-0.703 -0.446,-1.688 -0.446,-2.227 z"
         style="fill:#000000;fill-opacity:1;fill-rule:nonzero;stroke:none"
         id="path324" /><path
         d="m 449.77,213.398 c 0.07,0.586 0.468,1.219 1.171,1.219 0.329,0 1.243,-0.211 1.243,-1.429 v -0.844 h -0.375 v 0.844 c 0,0.867 -0.375,0.96 -0.539,0.96 -0.493,0 -0.563,-0.679 -0.563,-0.75 v -2.976 c 0,-0.633 0,-1.219 -0.539,-1.781 -0.586,-0.586 -1.336,-0.821 -2.039,-0.821 -1.242,0 -2.274,0.703 -2.274,1.688 0,0.445 0.305,0.703 0.704,0.703 0.421,0 0.679,-0.305 0.679,-0.68 0,-0.187 -0.07,-0.679 -0.773,-0.679 0.422,-0.54 1.148,-0.704 1.617,-0.704 0.75,0 1.594,0.586 1.594,1.922 v 0.539 c -0.774,0.047 -1.805,0.094 -2.742,0.539 -1.125,0.516 -1.5,1.29 -1.5,1.946 0,1.218 1.453,1.594 2.39,1.594 0.985,0 1.664,-0.61 1.946,-1.29 z m -0.094,-2.46 v 1.5 c 0,1.406 -1.078,1.921 -1.758,1.921 -0.727,0 -1.336,-0.515 -1.336,-1.265 0,-0.821 0.633,-2.063 3.094,-2.156 z"
         style="fill:#000000;fill-opacity:1;fill-rule:nonzero;stroke:none"
         id="path326" /><path
         d="m 453.867,213.398 c 0,0.657 -0.164,0.657 -1.172,0.657 v 0.468 c 0.493,-0.023 1.196,-0.046 1.617,-0.046 0.469,0 1.055,0.023 1.665,0.046 v -0.468 c -1.008,0 -1.172,0 -1.172,-0.657 v -1.546 l 0.961,-0.821 c 1.148,1.571 1.781,2.414 1.781,2.696 0,0.281 -0.258,0.328 -0.539,0.328 v 0.468 c 0.398,-0.023 1.289,-0.046 1.617,-0.046 0.422,0 0.867,0.023 1.289,0.046 v -0.468 c -0.562,0 -0.891,0 -1.453,-0.797 l -1.899,-2.672 c -0.023,-0.024 -0.093,-0.117 -0.093,-0.164 0,-0.047 1.078,-0.961 1.219,-1.078 0.937,-0.75 1.57,-0.797 1.874,-0.797 v -0.469 c -0.421,0.047 -0.609,0.047 -1.031,0.047 -0.539,0 -1.476,-0.023 -1.687,-0.047 v 0.469 c 0.281,0 0.445,0.164 0.445,0.375 0,0.305 -0.211,0.469 -0.328,0.586 l -2.109,1.804 v -7.171 l -2.157,0.164 v 0.468 c 1.055,0 1.172,0.094 1.172,0.844 z"
         style="fill:#000000;fill-opacity:1;fill-rule:nonzero;stroke:none"
         id="path328" /><path
         d="m 465.832,213.703 v 0.985 l 2.203,-0.165 v -0.468 c -1.031,0 -1.172,-0.094 -1.172,-0.844 v -9.07 l -2.133,0.164 v 0.468 c 1.032,0 1.149,0.094 1.149,0.844 v 3.235 c -0.422,-0.54 -1.078,-0.938 -1.875,-0.938 -1.758,0 -3.328,1.477 -3.328,3.398 0,1.899 1.453,3.376 3.164,3.376 0.961,0 1.617,-0.516 1.992,-0.985 z m 0,-4.008 v 3.071 c 0,0.257 0,0.281 -0.164,0.539 -0.445,0.726 -1.102,1.054 -1.758,1.054 -0.68,0 -1.219,-0.398 -1.57,-0.961 -0.375,-0.609 -0.422,-1.453 -0.422,-2.086 0,-0.539 0.023,-1.429 0.445,-2.109 0.328,-0.469 0.891,-0.961 1.711,-0.961 0.516,0 1.149,0.235 1.594,0.891 0.164,0.258 0.164,0.281 0.164,0.562 z"
         style="fill:#000000;fill-opacity:1;fill-rule:nonzero;stroke:none"
         id="path330" /><path
         d="m 475.492,211.312 c 0,-1.898 -1.476,-3.492 -3.281,-3.492 -1.875,0 -3.328,1.641 -3.328,3.492 0,1.946 1.547,3.376 3.305,3.376 1.804,0 3.304,-1.477 3.304,-3.376 z m -3.281,3 c -0.656,0 -1.313,-0.304 -1.711,-1.007 -0.375,-0.657 -0.375,-1.571 -0.375,-2.11 0,-0.586 0,-1.383 0.352,-2.039 0.398,-0.679 1.101,-1.008 1.711,-1.008 0.656,0 1.289,0.329 1.687,0.985 0.398,0.633 0.398,1.5 0.398,2.062 0,0.539 0,1.36 -0.328,2.016 -0.351,0.68 -1.007,1.101 -1.734,1.101 z"
         style="fill:#000000;fill-opacity:1;fill-rule:nonzero;stroke:none"
         id="path332" /><path
         d="m 484.773,209.508 c 0.258,-0.75 0.727,-0.961 1.266,-0.961 v -0.469 c -0.351,0.024 -0.773,0.047 -1.101,0.047 -0.446,0 -1.102,-0.023 -1.383,-0.047 v 0.469 c 0.539,0 0.867,0.281 0.867,0.703 0,0.094 0,0.141 -0.094,0.328 l -1.359,3.82 -1.477,-4.171 c -0.047,-0.188 -0.07,-0.211 -0.07,-0.282 0,-0.398 0.586,-0.398 0.89,-0.398 v -0.469 c -0.445,0.024 -1.195,0.047 -1.57,0.047 -0.445,0 -0.867,-0.023 -1.312,-0.047 v 0.469 c 0.539,0 0.773,0.023 0.937,0.211 0.071,0.094 0.235,0.539 0.328,0.82 l -1.265,3.633 -1.43,-3.984 c -0.07,-0.188 -0.07,-0.211 -0.07,-0.282 0,-0.398 0.586,-0.398 0.867,-0.398 v -0.469 c -0.445,0.024 -1.289,0.047 -1.617,0.047 -0.071,0 -0.868,-0.023 -1.407,-0.047 v 0.469 c 0.75,0 0.938,0.047 1.125,0.515 l 1.875,5.297 c 0.071,0.211 0.118,0.329 0.305,0.329 0.211,0 0.234,-0.094 0.305,-0.305 l 1.523,-4.219 1.524,4.242 c 0.047,0.164 0.093,0.282 0.304,0.282 0.188,0 0.235,-0.141 0.282,-0.282 z"
         style="fill:#000000;fill-opacity:1;fill-rule:nonzero;stroke:none"
         id="path334" /><path
         d="m 487.949,209.391 v 4.007 c 0,0.657 -0.164,0.657 -1.172,0.657 v 0.468 c 0.539,-0.023 1.289,-0.046 1.711,-0.046 0.375,0 1.149,0.023 1.664,0.046 v -0.468 c -1.007,0 -1.172,0 -1.172,-0.657 v -2.765 c 0,-1.547 1.079,-2.391 2.016,-2.391 0.961,0 1.125,0.797 1.125,1.664 v 3.492 c 0,0.657 -0.164,0.657 -1.172,0.657 v 0.468 c 0.516,-0.023 1.289,-0.046 1.688,-0.046 0.375,0 1.172,0.023 1.664,0.046 v -0.468 c -0.774,0 -1.149,0 -1.149,-0.446 v -2.859 c 0,-1.289 0,-1.734 -0.468,-2.273 -0.211,-0.258 -0.704,-0.563 -1.571,-0.563 -1.101,0 -1.804,0.633 -2.226,1.57 v -1.57 l -2.11,0.164 v 0.469 c 1.055,0 1.172,0.094 1.172,0.844 z"
         style="fill:#000000;fill-opacity:1;fill-rule:nonzero;stroke:none"
         id="path336" /><g
         id="g338"><path
           d="m 343.246,209.359 h -16.012 l -47.754,9.446"
           style="fill:none;stroke:#000000;stroke-width:0.749999;stroke-linecap:butt;stroke-linejoin:miter;stroke-miterlimit:4;stroke-dasharray:none;stroke-opacity:1"
           id="path340" /></g><g
         id="g342"
         transform="matrix(-1,0.197765,-0.197765,-1,0,0)"><path
           d="m -225.877,-263.76 c 0,0.812 -0.658,1.475 -1.471,1.474 -0.812,0 -1.471,-0.662 -1.47,-1.474 -0.004,-0.809 0.658,-1.471 1.471,-1.471 0.812,10e-4 1.47,0.662 1.47,1.471 z"
           style="fill:#000000;fill-opacity:1;fill-rule:evenodd;stroke:#000000;stroke-width:0.3924;stroke-linecap:butt;stroke-linejoin:miter;stroke-miterlimit:4;stroke-dasharray:none;stroke-opacity:1"
           id="path344" /></g><g
         id="g346"><path
           d="M 343.082,209.398 H 327.07 l -36.019,-63.785"
           style="fill:none;stroke:#000000;stroke-width:0.749999;stroke-linecap:butt;stroke-linejoin:miter;stroke-miterlimit:4;stroke-dasharray:none;stroke-opacity:1"
           id="path348" /></g><g
         id="g350"
         transform="matrix(-0.564703,-1,1,-0.564703,0,0)"><path
           d="m -233.743,158.333 c -0.001,0.722 -0.585,1.306 -1.307,1.305 -0.719,0 -1.306,-0.586 -1.307,-1.305 0.002,-0.721 0.586,-1.306 1.306,-1.309 0.722,0.001 1.306,0.585 1.308,1.309 z"
           style="fill:#000000;fill-opacity:1;fill-rule:evenodd;stroke:#000000;stroke-width:0.348301;stroke-linecap:butt;stroke-linejoin:miter;stroke-miterlimit:4;stroke-dasharray:none;stroke-opacity:1"
           id="path352" /></g><path
         d="m 11.02,104.457 v 8.859 H 9.402 v 0.704 h 6.446 c 2.953,0 5.179,-1.829 5.179,-5.04 0,-3.281 -2.226,-5.226 -5.203,-5.226 H 9.402 v 0.703 z m 2.039,8.859 v -8.859 h 2.179 c 0.985,0 2.227,0.281 2.953,1.336 0.516,0.773 0.633,1.781 0.633,3.164 0,1.641 -0.164,2.438 -0.656,3.094 -0.703,1.031 -2.016,1.265 -2.93,1.265 z"
         style="fill:#000000;fill-opacity:1;fill-rule:nonzero;stroke:none"
         id="path354" /><path
         d="m 25.344,107.293 -2.602,0.117 v 0.703 c 0.891,0 0.985,0 0.985,0.586 v 4.617 h -1.032 v 0.704 c 0.469,-0.024 1.196,-0.047 1.828,-0.047 0.446,0 1.219,0.023 1.735,0.047 v -0.704 h -0.914 z m 0.14,-2.508 c 0,-0.656 -0.539,-1.148 -1.148,-1.148 -0.656,0 -1.172,0.515 -1.172,1.148 0,0.656 0.516,1.172 1.172,1.172 0.609,0 1.148,-0.516 1.148,-1.172 z"
         style="fill:#000000;fill-opacity:1;fill-rule:nonzero;stroke:none"
         id="path356" /><path
         d="m 29.93,109.613 c -0.563,-0.093 -1.524,-0.258 -1.524,-0.961 0,-0.937 1.383,-0.937 1.664,-0.937 1.125,0 1.688,0.445 1.758,1.265 0.024,0.235 0.047,0.305 0.352,0.305 0.351,0 0.351,-0.07 0.351,-0.422 v -1.195 c 0,-0.281 0,-0.422 -0.258,-0.422 -0.07,0 -0.093,0 -0.679,0.281 -0.399,-0.187 -0.914,-0.281 -1.5,-0.281 -0.469,0 -2.766,0 -2.766,1.969 0,0.586 0.305,0.984 0.61,1.242 0.585,0.516 1.171,0.609 2.32,0.82 0.539,0.094 1.64,0.282 1.64,1.172 0,1.125 -1.359,1.125 -1.687,1.125 -1.594,0 -1.969,-1.101 -2.156,-1.734 -0.071,-0.211 -0.164,-0.211 -0.352,-0.211 -0.375,0 -0.375,0.094 -0.375,0.422 v 1.64 c 0,0.282 0,0.422 0.281,0.422 0.094,0 0.118,0 0.446,-0.234 0.023,0 0.351,-0.211 0.375,-0.258 0.703,0.492 1.476,0.492 1.781,0.492 0.469,0 2.766,0 2.766,-2.179 0,-0.657 -0.305,-1.172 -0.821,-1.594 -0.586,-0.422 -1.078,-0.516 -2.226,-0.727 z"
         style="fill:#000000;fill-opacity:1;fill-rule:nonzero;stroke:none"
         id="path358" /><path
         d="m 36.711,109.613 c -0.563,-0.093 -1.523,-0.258 -1.523,-0.961 0,-0.937 1.382,-0.937 1.664,-0.937 1.125,0 1.687,0.445 1.757,1.265 0.024,0.235 0.047,0.305 0.352,0.305 0.351,0 0.351,-0.07 0.351,-0.422 v -1.195 c 0,-0.281 0,-0.422 -0.257,-0.422 -0.071,0 -0.094,0 -0.68,0.281 -0.398,-0.187 -0.914,-0.281 -1.5,-0.281 -0.469,0 -2.766,0 -2.766,1.969 0,0.586 0.305,0.984 0.61,1.242 0.586,0.516 1.172,0.609 2.32,0.82 0.539,0.094 1.641,0.282 1.641,1.172 0,1.125 -1.36,1.125 -1.688,1.125 -1.594,0 -1.969,-1.101 -2.156,-1.734 -0.07,-0.211 -0.164,-0.211 -0.352,-0.211 -0.375,0 -0.375,0.094 -0.375,0.422 v 1.64 c 0,0.282 0,0.422 0.282,0.422 0.093,0 0.117,0 0.445,-0.234 0.023,0 0.352,-0.211 0.375,-0.258 0.703,0.492 1.477,0.492 1.781,0.492 0.469,0 2.766,0 2.766,-2.179 0,-0.657 -0.305,-1.172 -0.82,-1.594 -0.586,-0.422 -1.079,-0.516 -2.227,-0.727 z"
         style="fill:#000000;fill-opacity:1;fill-rule:nonzero;stroke:none"
         id="path360" /><path
         d="m 48.434,110.762 c 0,-2.016 -1.383,-3.516 -3.821,-3.516 -2.461,0 -3.82,1.524 -3.82,3.516 0,1.851 1.336,3.351 3.82,3.351 2.508,0 3.821,-1.523 3.821,-3.351 z m -3.821,2.742 c -1.898,0 -1.898,-1.617 -1.898,-2.906 0,-0.68 0,-1.43 0.258,-1.946 0.281,-0.562 0.914,-0.867 1.64,-0.867 0.633,0 1.266,0.235 1.594,0.75 0.305,0.516 0.305,1.336 0.305,2.063 0,1.289 0,2.906 -1.899,2.906 z"
         style="fill:#000000;fill-opacity:1;fill-rule:nonzero;stroke:none"
         id="path362" /><path
         d="m 54.785,107.926 c -0.281,0.258 -0.305,0.562 -0.305,0.703 0,0.656 0.516,0.937 0.915,0.937 0.468,0 0.96,-0.328 0.96,-0.937 0,-1.289 -1.734,-1.383 -2.601,-1.383 -2.695,0 -3.797,1.711 -3.797,3.445 0,1.993 1.406,3.422 3.703,3.422 2.438,0 2.883,-1.734 2.883,-1.851 0,-0.211 -0.211,-0.211 -0.352,-0.211 -0.281,0 -0.281,0.047 -0.375,0.234 -0.375,0.938 -1.101,1.219 -1.851,1.219 -2.086,0 -2.086,-2.18 -2.086,-2.883 0,-0.844 0,-2.766 1.922,-2.766 0.539,0 0.773,0.024 0.984,0.071 z"
         style="fill:#000000;fill-opacity:1;fill-rule:nonzero;stroke:none"
         id="path364" /><path
         d="m 60.383,107.293 -2.602,0.117 v 0.703 c 0.891,0 0.985,0 0.985,0.586 v 4.617 h -1.032 v 0.704 c 0.469,-0.024 1.196,-0.047 1.828,-0.047 0.446,0 1.219,0.023 1.735,0.047 v -0.704 h -0.914 z m 0.14,-2.508 c 0,-0.656 -0.539,-1.148 -1.148,-1.148 -0.656,0 -1.172,0.515 -1.172,1.148 0,0.656 0.516,1.172 1.172,1.172 0.609,0 1.148,-0.516 1.148,-1.172 z"
         style="fill:#000000;fill-opacity:1;fill-rule:nonzero;stroke:none"
         id="path366" /><path
         d="m 67.406,112.871 c 0,0.469 0,1.149 1.547,1.149 h 0.727 c 0.281,0 0.468,0 0.468,-0.352 0,-0.352 -0.187,-0.352 -0.398,-0.352 -0.914,-0.023 -0.914,-0.211 -0.914,-0.562 v -3.211 c 0,-1.336 -1.055,-2.297 -3.281,-2.297 -0.844,0 -2.672,0.07 -2.672,1.383 0,0.656 0.515,0.937 0.914,0.937 0.469,0 0.961,-0.328 0.961,-0.937 0,-0.445 -0.281,-0.703 -0.328,-0.75 0.422,-0.07 0.89,-0.094 1.078,-0.094 1.101,0 1.64,0.633 1.64,1.758 v 0.516 c -1.078,0.046 -4.875,0.187 -4.875,2.343 0,1.43 1.875,1.711 2.907,1.711 1.195,0 1.898,-0.609 2.226,-1.242 z m -0.258,-2.344 v 1.407 c 0,1.453 -1.382,1.64 -1.757,1.64 -0.75,0 -1.36,-0.515 -1.36,-1.195 0,-1.594 2.367,-1.805 3.117,-1.852 z"
         style="fill:#000000;fill-opacity:1;fill-rule:nonzero;stroke:none"
         id="path368" /><path
         d="m 71.707,108.09 v 4.101 c 0,1.594 1.289,1.922 2.367,1.922 1.125,0 1.805,-0.867 1.805,-1.945 v -0.797 h -0.703 v 0.774 c 0,1.007 -0.492,1.359 -0.914,1.359 -0.867,0 -0.867,-0.961 -0.867,-1.289 v -4.125 h 2.203 v -0.703 h -2.203 v -2.86 h -0.704 c 0,1.5 -0.726,2.977 -2.226,3.024 v 0.539 z"
         style="fill:#000000;fill-opacity:1;fill-rule:nonzero;stroke:none"
         id="path370" /><path
         d="m 80.195,107.293 -2.601,0.117 v 0.703 c 0.89,0 0.984,0 0.984,0.586 v 4.617 h -1.031 v 0.704 c 0.469,-0.024 1.195,-0.047 1.828,-0.047 0.445,0 1.219,0.023 1.734,0.047 v -0.704 h -0.914 z m 0.141,-2.508 c 0,-0.656 -0.539,-1.148 -1.148,-1.148 -0.657,0 -1.172,0.515 -1.172,1.148 0,0.656 0.515,1.172 1.172,1.172 0.609,0 1.148,-0.516 1.148,-1.172 z"
         style="fill:#000000;fill-opacity:1;fill-rule:nonzero;stroke:none"
         id="path372" /><path
         d="m 89.727,110.762 c 0,-2.016 -1.383,-3.516 -3.821,-3.516 -2.461,0 -3.82,1.524 -3.82,3.516 0,1.851 1.336,3.351 3.82,3.351 2.508,0 3.821,-1.523 3.821,-3.351 z m -3.821,2.742 c -1.898,0 -1.898,-1.617 -1.898,-2.906 0,-0.68 0,-1.43 0.258,-1.946 0.281,-0.562 0.914,-0.867 1.64,-0.867 0.633,0 1.266,0.235 1.594,0.75 0.305,0.516 0.305,1.336 0.305,2.063 0,1.289 0,2.906 -1.899,2.906 z"
         style="fill:#000000;fill-opacity:1;fill-rule:nonzero;stroke:none"
         id="path374" /><path
         d="m 91.918,108.699 v 4.617 h -1.031 v 0.704 c 0.422,-0.024 1.312,-0.047 1.875,-0.047 0.586,0 1.476,0.023 1.875,0.047 v -0.704 h -1.032 v -3.117 c 0,-1.64 1.29,-2.367 2.25,-2.367 0.493,0 0.821,0.305 0.821,1.453 v 4.031 h -1.031 v 0.704 c 0.398,-0.024 1.312,-0.047 1.875,-0.047 0.585,0 1.476,0.023 1.875,0.047 v -0.704 h -1.032 v -3.867 c 0,-1.57 -0.797,-2.156 -2.297,-2.156 -1.429,0 -2.226,0.844 -2.625,1.617 v -1.617 l -2.554,0.117 v 0.703 c 0.914,0 1.031,0 1.031,0.586 z"
         style="fill:#000000;fill-opacity:1;fill-rule:nonzero;stroke:none"
         id="path376" /><path
         d="m 39.73,122.91 h 1.711 v -0.703 c -0.609,0.047 -2.086,0.047 -2.765,0.047 -0.68,0 -2.156,0 -2.766,-0.047 v 0.703 h 1.711 v 8.86 H 35.91 v 0.703 c 0.61,-0.047 2.086,-0.047 2.766,-0.047 0.679,0 2.156,0 2.765,0.047 V 131.77 H 39.73 Z"
         style="fill:#000000;fill-opacity:1;fill-rule:nonzero;stroke:none"
         id="path378" /><path
         d="m 50.047,129.215 c 0,-2.016 -1.383,-3.516 -3.82,-3.516 -2.461,0 -3.821,1.524 -3.821,3.516 0,1.851 1.336,3.351 3.821,3.351 2.507,0 3.82,-1.523 3.82,-3.351 z m -3.82,2.742 c -1.899,0 -1.899,-1.617 -1.899,-2.906 0,-0.68 0,-1.43 0.258,-1.946 0.281,-0.562 0.914,-0.867 1.641,-0.867 0.632,0 1.265,0.235 1.593,0.75 0.305,0.516 0.305,1.336 0.305,2.063 0,1.289 0,2.906 -1.898,2.906 z"
         style="fill:#000000;fill-opacity:1;fill-rule:nonzero;stroke:none"
         id="path380" /><path
         d="m 52.238,127.152 v 4.618 h -1.031 v 0.703 c 0.422,-0.024 1.313,-0.047 1.875,-0.047 0.586,0 1.477,0.023 1.875,0.047 v -0.703 h -1.031 v -3.118 c 0,-1.64 1.289,-2.367 2.25,-2.367 0.492,0 0.82,0.305 0.82,1.453 v 4.032 h -1.031 v 0.703 c 0.398,-0.024 1.312,-0.047 1.875,-0.047 0.586,0 1.476,0.023 1.875,0.047 v -0.703 h -1.031 v -3.868 c 0,-1.57 -0.797,-2.156 -2.297,-2.156 -1.43,0 -2.227,0.844 -2.625,1.617 v -1.617 l -2.555,0.117 v 0.703 c 0.914,0 1.031,0 1.031,0.586 z"
         style="fill:#000000;fill-opacity:1;fill-rule:nonzero;stroke:none"
         id="path382" /><path
         d="m 63.43,125.746 -2.602,0.117 v 0.703 c 0.891,0 0.984,0 0.984,0.586 v 4.618 h -1.031 v 0.703 c 0.469,-0.024 1.196,-0.047 1.828,-0.047 0.446,0 1.219,0.023 1.735,0.047 V 131.77 H 63.43 Z m 0.14,-2.508 c 0,-0.656 -0.539,-1.148 -1.148,-1.148 -0.656,0 -1.172,0.515 -1.172,1.148 0,0.657 0.516,1.172 1.172,1.172 0.609,0 1.148,-0.515 1.148,-1.172 z"
         style="fill:#000000;fill-opacity:1;fill-rule:nonzero;stroke:none"
         id="path384" /><path
         d="m 71.551,126.473 c 0.14,-0.164 0.164,-0.188 0.164,-0.328 0,-0.305 -0.211,-0.305 -0.492,-0.305 h -5.485 l -0.164,2.601 h 0.703 c 0.071,-1.523 0.539,-2.062 2.086,-2.062 h 1.266 l -4.172,5.437 c -0.141,0.164 -0.141,0.188 -0.141,0.329 0,0.328 0.211,0.328 0.493,0.328 h 5.671 l 0.282,-3.024 h -0.703 c -0.141,1.524 -0.375,2.414 -2.344,2.414 h -1.289 z"
         style="fill:#000000;fill-opacity:1;fill-rule:nonzero;stroke:none"
         id="path386" /><path
         d="m 78.09,131.324 c 0,0.469 0,1.149 1.547,1.149 h 0.726 c 0.282,0 0.469,0 0.469,-0.352 0,-0.351 -0.187,-0.351 -0.398,-0.351 -0.914,-0.024 -0.914,-0.211 -0.914,-0.563 v -3.211 c 0,-1.336 -1.055,-2.297 -3.282,-2.297 -0.843,0 -2.672,0.071 -2.672,1.383 0,0.656 0.516,0.938 0.914,0.938 0.469,0 0.961,-0.329 0.961,-0.938 0,-0.445 -0.281,-0.703 -0.328,-0.75 0.422,-0.07 0.891,-0.094 1.078,-0.094 1.102,0 1.641,0.633 1.641,1.758 v 0.516 c -1.078,0.047 -4.875,0.187 -4.875,2.343 0,1.43 1.875,1.711 2.906,1.711 1.196,0 1.899,-0.609 2.227,-1.242 z m -0.258,-2.344 v 1.407 c 0,1.453 -1.383,1.64 -1.758,1.64 -0.75,0 -1.359,-0.515 -1.359,-1.195 0,-1.594 2.367,-1.805 3.117,-1.852 z"
         style="fill:#000000;fill-opacity:1;fill-rule:nonzero;stroke:none"
         id="path388" /><path
         d="m 82.387,126.543 v 4.102 c 0,1.593 1.289,1.921 2.367,1.921 1.125,0 1.805,-0.867 1.805,-1.945 v -0.797 h -0.704 v 0.774 c 0,1.007 -0.492,1.359 -0.914,1.359 -0.867,0 -0.867,-0.961 -0.867,-1.289 v -4.125 h 2.203 v -0.703 h -2.203 v -2.86 h -0.703 c 0,1.5 -0.726,2.977 -2.226,3.024 v 0.539 z"
         style="fill:#000000;fill-opacity:1;fill-rule:nonzero;stroke:none"
         id="path390" /><path
         d="m 90.875,125.746 -2.602,0.117 v 0.703 c 0.891,0 0.985,0 0.985,0.586 v 4.618 h -1.031 v 0.703 c 0.468,-0.024 1.195,-0.047 1.828,-0.047 0.445,0 1.218,0.023 1.734,0.047 v -0.703 h -0.914 z m 0.141,-2.508 c 0,-0.656 -0.539,-1.148 -1.149,-1.148 -0.656,0 -1.172,0.515 -1.172,1.148 0,0.657 0.516,1.172 1.172,1.172 0.61,0 1.149,-0.515 1.149,-1.172 z"
         style="fill:#000000;fill-opacity:1;fill-rule:nonzero;stroke:none"
         id="path392" /><path
         d="m 100.406,129.215 c 0,-2.016 -1.383,-3.516 -3.82,-3.516 -2.461,0 -3.82,1.524 -3.82,3.516 0,1.851 1.336,3.351 3.82,3.351 2.508,0 3.82,-1.523 3.82,-3.351 z m -3.82,2.742 c -1.898,0 -1.898,-1.617 -1.898,-2.906 0,-0.68 0,-1.43 0.257,-1.946 0.282,-0.562 0.914,-0.867 1.641,-0.867 0.633,0 1.266,0.235 1.594,0.75 0.304,0.516 0.304,1.336 0.304,2.063 0,1.289 0,2.906 -1.898,2.906 z"
         style="fill:#000000;fill-opacity:1;fill-rule:nonzero;stroke:none"
         id="path394" /><path
         d="m 102.602,127.152 v 4.618 h -1.032 v 0.703 c 0.422,-0.024 1.313,-0.047 1.875,-0.047 0.586,0 1.477,0.023 1.875,0.047 v -0.703 h -1.031 v -3.118 c 0,-1.64 1.289,-2.367 2.25,-2.367 0.492,0 0.82,0.305 0.82,1.453 v 4.032 h -1.031 v 0.703 c 0.399,-0.024 1.313,-0.047 1.875,-0.047 0.586,0 1.477,0.023 1.875,0.047 v -0.703 h -1.031 v -3.868 c 0,-1.57 -0.797,-2.156 -2.297,-2.156 -1.43,0 -2.227,0.844 -2.625,1.617 v -1.617 l -2.555,0.117 v 0.703 c 0.914,0 1.032,0 1.032,0.586 z"
         style="fill:#000000;fill-opacity:1;fill-rule:nonzero;stroke:none"
         id="path396" /><path
         d="m 52.355,145.664 v -4.172 h 1.758 c 2.414,0 2.438,1.172 2.438,2.086 0,0.844 0,2.086 -2.461,2.086 z m 3.985,0.305 c 1.734,-0.446 2.484,-1.43 2.484,-2.414 0,-1.5 -1.64,-2.766 -4.453,-2.766 h -5.672 v 0.703 h 1.617 v 8.86 h -1.617 v 0.703 c 0.539,-0.047 1.992,-0.047 2.625,-0.047 0.633,0 2.086,0 2.625,0.047 v -0.703 h -1.594 v -4.149 h 1.735 c 0.211,0 0.867,0 1.336,0.492 0.469,0.539 0.469,0.821 0.469,1.899 0,0.984 0,1.734 1.054,2.226 0.656,0.328 1.594,0.399 2.203,0.399 1.594,0 1.782,-1.336 1.782,-1.594 0,-0.328 -0.211,-0.328 -0.352,-0.328 -0.305,0 -0.328,0.164 -0.352,0.351 -0.07,0.704 -0.492,1.032 -0.937,1.032 -0.914,0 -1.031,-1.055 -1.125,-1.688 -0.023,-0.164 -0.141,-1.195 -0.164,-1.265 -0.211,-1.055 -1.031,-1.524 -1.664,-1.758 z"
         style="fill:#000000;fill-opacity:1;fill-rule:nonzero;stroke:none"
         id="path398" /><path
         d="m 66.605,149.906 c 0,0.469 0,1.149 1.547,1.149 h 0.727 c 0.281,0 0.469,0 0.469,-0.352 0,-0.351 -0.188,-0.351 -0.399,-0.351 -0.914,-0.024 -0.914,-0.211 -0.914,-0.563 v -3.211 c 0,-1.336 -1.055,-2.297 -3.281,-2.297 -0.844,0 -2.672,0.071 -2.672,1.383 0,0.656 0.516,0.938 0.914,0.938 0.469,0 0.961,-0.329 0.961,-0.938 0,-0.445 -0.281,-0.703 -0.328,-0.75 0.422,-0.07 0.891,-0.094 1.078,-0.094 1.102,0 1.641,0.633 1.641,1.758 v 0.516 c -1.078,0.047 -4.875,0.187 -4.875,2.344 0,1.429 1.875,1.71 2.906,1.71 1.195,0 1.898,-0.609 2.226,-1.242 z m -0.257,-2.344 v 1.407 c 0,1.453 -1.383,1.64 -1.758,1.64 -0.75,0 -1.36,-0.515 -1.36,-1.195 0,-1.594 2.368,-1.805 3.118,-1.852 z"
         style="fill:#000000;fill-opacity:1;fill-rule:nonzero;stroke:none"
         id="path400" /><path
         d="m 75.613,150.422 v 0.726 l 2.719,-0.093 v -0.703 c -0.914,0 -1.031,0 -1.031,-0.586 v -9.094 l -2.649,0.117 v 0.703 c 0.938,0 1.055,0 1.055,0.586 v 2.93 c -0.75,-0.586 -1.547,-0.68 -2.039,-0.68 -2.18,0 -3.75,1.313 -3.75,3.422 0,1.969 1.383,3.398 3.586,3.398 0.914,0 1.641,-0.351 2.109,-0.726 z m 0,-4.641 v 3.727 c -0.211,0.281 -0.82,1.101 -1.945,1.101 -1.828,0 -1.828,-1.804 -1.828,-2.859 0,-0.727 0,-1.523 0.375,-2.109 0.445,-0.633 1.148,-0.774 1.617,-0.774 0.844,0 1.453,0.469 1.781,0.914 z"
         style="fill:#000000;fill-opacity:1;fill-rule:nonzero;stroke:none"
         id="path402" /><path
         d="m 82.254,144.328 -2.602,0.117 v 0.703 c 0.891,0 0.985,0 0.985,0.586 v 4.618 h -1.032 v 0.703 c 0.469,-0.024 1.196,-0.047 1.829,-0.047 0.445,0 1.218,0.023 1.734,0.047 v -0.703 h -0.914 z m 0.141,-2.508 c 0,-0.656 -0.54,-1.148 -1.149,-1.148 -0.656,0 -1.172,0.516 -1.172,1.148 0,0.657 0.516,1.172 1.172,1.172 0.609,0 1.149,-0.515 1.149,-1.172 z"
         style="fill:#000000;fill-opacity:1;fill-rule:nonzero;stroke:none"
         id="path404" /><path
         d="m 89.277,149.906 c 0,0.469 0,1.149 1.547,1.149 h 0.727 c 0.281,0 0.469,0 0.469,-0.352 0,-0.351 -0.188,-0.351 -0.399,-0.351 -0.914,-0.024 -0.914,-0.211 -0.914,-0.563 v -3.211 c 0,-1.336 -1.055,-2.297 -3.281,-2.297 -0.844,0 -2.672,0.071 -2.672,1.383 0,0.656 0.516,0.938 0.914,0.938 0.469,0 0.961,-0.329 0.961,-0.938 0,-0.445 -0.281,-0.703 -0.328,-0.75 0.422,-0.07 0.89,-0.094 1.078,-0.094 1.101,0 1.641,0.633 1.641,1.758 v 0.516 c -1.079,0.047 -4.875,0.187 -4.875,2.344 0,1.429 1.875,1.71 2.906,1.71 1.195,0 1.898,-0.609 2.226,-1.242 z m -0.257,-2.344 v 1.407 c 0,1.453 -1.383,1.64 -1.758,1.64 -0.75,0 -1.36,-0.515 -1.36,-1.195 0,-1.594 2.368,-1.805 3.118,-1.852 z"
         style="fill:#000000;fill-opacity:1;fill-rule:nonzero;stroke:none"
         id="path406" /><path
         d="m 93.578,145.125 v 4.102 c 0,1.593 1.289,1.921 2.367,1.921 1.125,0 1.805,-0.867 1.805,-1.945 v -0.797 h -0.703 v 0.774 c 0,1.008 -0.492,1.359 -0.914,1.359 -0.867,0 -0.867,-0.961 -0.867,-1.289 v -4.125 h 2.203 v -0.703 h -2.203 v -2.86 h -0.704 c 0,1.5 -0.726,2.977 -2.226,3.024 v 0.539 z"
         style="fill:#000000;fill-opacity:1;fill-rule:nonzero;stroke:none"
         id="path408" /><path
         d="m 102.062,144.328 -2.601,0.117 v 0.703 c 0.891,0 0.984,0 0.984,0.586 v 4.618 h -1.031 v 0.703 c 0.469,-0.024 1.195,-0.047 1.828,-0.047 0.446,0 1.219,0.023 1.735,0.047 v -0.703 h -0.915 z m 0.141,-2.508 c 0,-0.656 -0.539,-1.148 -1.148,-1.148 -0.657,0 -1.172,0.516 -1.172,1.148 0,0.657 0.515,1.172 1.172,1.172 0.609,0 1.148,-0.515 1.148,-1.172 z"
         style="fill:#000000;fill-opacity:1;fill-rule:nonzero;stroke:none"
         id="path410" /><path
         d="m 111.594,147.797 c 0,-2.016 -1.383,-3.516 -3.821,-3.516 -2.461,0 -3.82,1.524 -3.82,3.516 0,1.851 1.336,3.351 3.82,3.351 2.508,0 3.821,-1.523 3.821,-3.351 z m -3.821,2.742 c -1.898,0 -1.898,-1.617 -1.898,-2.906 0,-0.68 0,-1.43 0.258,-1.945 0.281,-0.563 0.914,-0.868 1.64,-0.868 0.633,0 1.266,0.235 1.594,0.75 0.305,0.516 0.305,1.336 0.305,2.063 0,1.289 0,2.906 -1.899,2.906 z"
         style="fill:#000000;fill-opacity:1;fill-rule:nonzero;stroke:none"
         id="path412" /><path
         d="m 113.789,145.734 v 4.618 h -1.031 v 0.703 c 0.422,-0.024 1.312,-0.047 1.875,-0.047 0.586,0 1.476,0.023 1.875,0.047 v -0.703 h -1.031 v -3.118 c 0,-1.64 1.289,-2.367 2.25,-2.367 0.492,0 0.82,0.305 0.82,1.453 v 4.032 h -1.031 v 0.703 c 0.398,-0.024 1.312,-0.047 1.875,-0.047 0.586,0 1.476,0.023 1.875,0.047 v -0.703 h -1.032 v -3.868 c 0,-1.57 -0.796,-2.156 -2.296,-2.156 -1.43,0 -2.227,0.844 -2.626,1.617 v -1.617 l -2.554,0.117 v 0.703 c 0.914,0 1.031,0 1.031,0.586 z"
         style="fill:#000000;fill-opacity:1;fill-rule:nonzero;stroke:none"
         id="path414" /></g></g></svg>
